<?xml version="1.0" encoding="utf-8"?>
<!-- Generator: Adobe Illustrator 17.0.0, SVG Export Plug-In . SVG Version: 6.00 Build 0)  -->
<!DOCTYPE svg PUBLIC "-//W3C//DTD SVG 1.1//EN" "http://www.w3.org/Graphics/SVG/1.1/DTD/svg11.dtd">
<svg version="1.1" id="Layer_1" xmlns="http://www.w3.org/2000/svg" xmlns:xlink="http://www.w3.org/1999/xlink" x="0px" y="0px"
	 width="1396.742px" height="1089.007px" viewBox="-410.371 -256.504 1396.742 1089.007"
	 enable-background="new -410.371 -256.504 1396.742 1089.007" xml:space="preserve">
<g>
	<path fill="#FFFFFF" d="M133.155,549.049c-53.707-70.79-167.943-73.74-303.993-64.031c-48.238,3.38-87.996-10.016-97.583-24.58
		c-12.29-18.435-28.882-12.72-49.774-4.609c-20.893,8.111-29.004-21.63-29.004-21.63c9.305,7.162,22.655,5.425,29.817-3.88
		c0.555-0.722,1.064-1.478,1.522-2.265c14.011-18.804,3.994-43.937-23.965-39.328c-29.189,4.301-36.44,39.942-25.44,66.12
		c14.133,33.982,44.244,51.864,155.038,43.015C-59.675,485.571,69.37,481.27,125.29,555.01c1.697,2.138,4.806,2.496,6.944,0.799
		c2.138-1.697,2.496-4.806,0.799-6.944L133.155,549.049z M-320.468,422.462c-4.267,2.09-9.42,0.324-11.51-3.943
		c-0.058-0.118-0.113-0.238-0.166-0.359c14.748-9.832-0.922-24.58-0.922-24.58C-312.787,394.072-311.312,419.512-320.468,422.462z
		 M-294.045,458.103c0,0,7.743-7.005,16.469,4.301c5.988,7.406,12.86,14.051,20.463,19.787c-35.641-5.961-36.87-23.965-36.87-23.965
		L-294.045,458.103z M452.327,555.686c2.134,1.56,5.121,1.153,6.76-0.922c55.919-73.74,185.087-69.438,335.517-57.148
		c110.61,9.095,140.905-8.787,155.161-43.015c10.938-26.178,3.687-61.757-25.44-66.489c-28.083-4.486-38.099,20.647-23.965,39.512
		c5.911,10.146,18.929,13.579,29.075,7.667c0.787-0.458,1.543-0.967,2.265-1.522c0,0-8.234,29.742-29.066,21.63
		s-37.73-14.134-49.775,4.609c-9.525,14.748-49.16,28.267-97.521,24.58c-136.173-9.217-250.286-6.452-303.993,64.522
		c-1.496,2.096-1.12,4.991,0.86,6.637L452.327,555.686z M917.626,393.888c0,0-15.731,14.379-0.922,24.58
		c-1.892,4.359-6.958,6.359-11.317,4.467c-0.121-0.052-0.24-0.108-0.359-0.166c-9.217-3.257-7.743-28.697,12.659-28.881H917.626z
		 M841.674,482.191c7.606-5.755,14.478-12.421,20.463-19.848c8.726-11.307,16.407-4.301,16.407-4.301s-1.229,18.128-36.87,24.088
		V482.191z M-186.63,160.992c1.578,3.454,1.578,7.423,0,10.877c-1.701,3.729-4.272,6.995-7.497,9.525
		c-3.623,2.887-7.611,5.283-11.86,7.128c-4.268,1.907-8.774,3.23-13.396,3.933c-4.063,0.737-8.227,0.737-12.29,0
		c-3.283-0.486-6.196-2.368-7.988-5.162c-2.642-6.065-3.14-12.848-1.413-19.234c1.819-10.039,5.22-19.725,10.078-28.697
		c6.145-11.699,13.564-22.683,22.122-32.753c10.285-11.865,22.202-22.21,35.395-30.725c15.216-9.95,31.768-17.688,49.16-22.982
		c20.68-6.22,42.192-9.225,63.785-8.91c19.496-0.715,38.925,2.677,57.026,9.955c12.895,5.316,24.017,14.18,32.077,25.563
		c6.888,10.462,10.484,22.747,10.324,35.272c-0.07,13.437-2.893,26.717-8.296,39.021c-5.862,13.448-14.012,25.778-24.088,36.44
		c-10.563,11.32-23.045,20.682-36.87,27.652c11.625,4.782,20.928,13.909,25.932,25.44c4.421,11.355,5.278,23.787,2.458,35.641
		c-3.447,14.307-9.715,27.781-18.435,39.635c-9.923,14.122-22.038,26.569-35.887,36.87c-15.414,11.404-32.438,20.454-50.512,26.854
		c-19.91,7.115-40.922,10.652-62.064,10.446c-5.196,0.53-10.413-0.774-14.748-3.687c-2.56-1.875-3.957-4.949-3.687-8.111
		c0.61-3.237,2.407-6.13,5.039-8.111c3.108-2.547,7.046-3.859,11.061-3.687c15.186,0.013,30.152-3.633,43.629-10.631
		c12.807-6.453,24.44-15.011,34.412-25.317c9.467-9.702,17.31-20.865,23.228-33.06c5.2-10.355,8.528-21.547,9.832-33.06
		c1.206-8.751-0.523-17.654-4.916-25.317c-5.01-7.303-13.624-11.267-22.429-10.324c-4.015,0.333-7.996-0.95-11.061-3.564
		c-2.205-1.933-3.31-4.833-2.95-7.743c0.729-3.219,2.722-6.009,5.531-7.743c4.222-2.638,9.165-3.885,14.133-3.564
		c8.801-0.416,17.092-4.253,23.105-10.692c8.039-7.787,14.689-16.89,19.664-26.915c5.619-11.02,9.751-22.736,12.29-34.842
		c2.459-11.461,2.709-23.287,0.737-34.842c-1.539-10.178-6.273-19.604-13.519-26.915c-8.79-7.699-20.301-11.551-31.954-10.692
		c-19.328-0.479-38.53,3.232-56.288,10.877c-14.326,6.221-27.355,15.08-38.406,26.116c-8.909,9.01-15.636,19.941-19.664,31.954
		c-3.624,8.959-3.929,18.918-0.86,28.083L-186.63,160.992z M-146.258,105.073c1.398-4.08,4.952-7.042,9.217-7.681
		c4.862-0.611,9.8,0.067,14.318,1.966c5.638,2.254,10.916,5.317,15.67,9.095c5.212,3.998,9.954,8.574,14.133,13.642
		c3.869,4.712,6.979,9.999,9.217,15.67c2.08,4.805,2.513,10.163,1.229,15.24c-2.73,7.322-6.319,14.294-10.692,20.77
		c-6.063,9.914-13.314,21.344-21.753,34.289c-8.439,12.945-17.554,26.833-27.345,41.663c-9.832,14.748-19.009,29.086-27.53,43.015
		c-8.521,13.929-15.895,26.567-22.122,37.915c-4.824,8.396-8.542,17.381-11.061,26.731c-0.517,4.34-3.012,8.197-6.76,10.446
		c-3.186,1.776-6.959,2.175-10.447,1.106c-3.632-1.263-6.687-3.794-8.603-7.128c-2.557-4.464-3.429-9.696-2.458-14.748
		c2.304-16.59,5.691-33.012,10.139-49.16c4.506-16.919,9.668-33.572,15.485-49.959c5.817-16.387,11.819-32.568,18.005-48.545
		c6.145-15.567,12.085-29.762,17.82-42.585c5.735-12.823,10.651-23.72,14.748-32.691c4.097-9.013,7.046-15.362,8.849-19.049
		L-146.258,105.073z M154.356,228.71c2.325-4.989,7.169-8.328,12.659-8.726c6.254-0.748,12.595,0.098,18.435,2.458
		c6.039,2.207,11.354,6.034,15.363,11.061c4.034,5.248,5.186,12.162,3.072,18.435c-1.763,5.823-4.132,11.446-7.067,16.776
		c-3.441,6.473-7.21,13.068-11.307,19.787l-12.29,19.971c-3.464,5.707-6.623,11.594-9.463,17.636
		c-2.044,3.788-3.199,7.99-3.38,12.29c0,2.868,2.048,4.179,6.145,3.933c6.666-0.861,12.896-3.783,17.82-8.357
		c5.974-4.959,11.337-10.611,15.977-16.837c4.975-6.525,9.434-13.428,13.335-20.647c3.512-6.449,6.692-13.074,9.525-19.848
		c1.812-4.789,5.024-8.922,9.217-11.86c2.846-2.043,6.485-2.635,9.832-1.598c3.202,1.275,5.523,4.107,6.145,7.497
		c0.844,5.412-0.015,10.952-2.458,15.854c-3.177,8.314-6.956,16.385-11.307,24.15c-5.223,9.723-11.399,18.903-18.435,27.407
		c-7.161,8.629-15.546,16.165-24.887,22.368c-9.085,6.085-19.791,9.296-30.725,9.217c-9.595,0.882-18.82-3.923-23.597-12.29
		c-4.605-9.136-6.884-19.268-6.637-29.496c-6.963,11.138-15.726,21.043-25.932,29.312c-9.342,7.765-21.397,11.481-33.49,10.324
		c-11.736-0.328-22.973-4.814-31.708-12.659c-7.784-7.513-13.135-17.189-15.362-27.775c-2.517-12.161-2.517-24.709,0-36.87
		c2.714-13.965,7.542-27.434,14.318-39.942c7.312-13.66,16.518-26.218,27.345-37.3c11.299-11.668,24.625-21.183,39.328-28.083
		c15.933-7.37,33.065-11.804,50.573-13.089c20.485-1.339,41.033,1.375,60.467,7.988c4.524,1.22,8.506,3.925,11.307,7.681
		c2.295,2.838,3.436,6.436,3.195,10.078c-0.628,3.359-2.954,6.151-6.145,7.374c-5.129,1.919-10.752,2.071-15.977,0.43
		c-11.413-2.901-23.315-3.32-34.904-1.229c-10.94,2.077-21.452,5.982-31.094,11.553c-9.731,5.586-18.627,12.516-26.424,20.586
		c-7.7,7.98-14.691,16.616-20.893,25.809c-5.819,8.425-10.761,17.423-14.748,26.854c-3.356,7.887-5.789,16.135-7.251,24.58
		c-1.238,6.221-1.112,12.636,0.369,18.804c0.932,4.558,4.616,8.045,9.217,8.726c5.866,0.992,11.863-0.751,16.284-4.732
		c5.891-4.928,11.062-10.658,15.362-17.022c5.391-7.783,10.118-16.006,14.134-24.58c4.302-9.013,8.193-17.78,11.675-26.301
		c2.335-8.439,4.752-16.223,7.251-23.351c2.004-5.593,4.406-11.035,7.19-16.284L154.356,228.71z M349.644,246.531
		c-1.855,5.975-4.327,11.742-7.374,17.206c-3.523,6.719-7.415,13.642-11.676,20.77l-12.29,21.2c-3.6,6.094-6.882,12.37-9.832,18.804
		c-2.106,4.133-3.36,8.646-3.687,13.273c0,3.277,2.048,4.67,6.145,4.179c6.406-0.878,12.401-3.662,17.206-7.988
		c5.972-4.962,11.335-10.614,15.977-16.837c5.056-6.636,9.576-13.664,13.519-21.016c3.543-6.326,6.763-12.827,9.648-19.48
		c1.812-4.789,5.024-8.922,9.217-11.86c2.846-2.043,6.485-2.635,9.832-1.598c3.209,1.266,5.534,4.102,6.145,7.497
		c0.844,5.412-0.015,10.952-2.458,15.854c-3.176,8.314-6.955,16.386-11.307,24.15c-5.224,9.722-11.399,18.903-18.435,27.407
		c-7.179,8.635-15.584,16.171-24.949,22.368c-9.085,6.085-19.791,9.297-30.725,9.217c-8.04,0.578-15.985-2.026-22.122-7.251
		c-5.257-5.201-8.887-11.82-10.446-19.049c-1.88-8.676-2.336-17.601-1.352-26.424c0.95-10.137,2.592-20.198,4.916-30.111
		c2.35-9.976,5.221-19.821,8.603-29.496c3.277-9.545,6.247-17.739,8.91-24.58v-0.43c2.022-5.206,1.332-11.076-1.844-15.67
		c-3.199-4.021-6.691-7.8-10.446-11.307c-2.13,5.326-4.793,11.737-7.989,19.234c-3.195,7.497-6.534,15.117-10.016,22.859
		c-3.154,7.784-6.227,15.158-9.217,22.122l-7.374,16.899c-1.702,4.736-5.094,8.675-9.525,11.061c-3.04,1.595-6.669,1.595-9.709,0
		c-2.929-1.813-4.993-4.743-5.715-8.111c-0.94-4.457-0.055-9.105,2.458-12.904c1.803-3.113,4.056-7.579,6.759-13.396l8.48-18.804
		c3.032-6.719,6.104-13.724,9.217-21.016l8.48-20.033c2.622-6.063,4.793-11.286,6.514-15.67c1.721-4.383,2.704-6.985,2.95-7.804
		c-0.295-7.451,1.047-14.877,3.933-21.753c1.37-5.099,4.619-9.49,9.095-12.29c3.24-2.034,7.178-2.635,10.877-1.659
		c3.327,1.08,5.961,3.647,7.128,6.944c1.359,4.439,0.825,9.241-1.475,13.273c-2.508,4.113-3.866,8.825-3.933,13.642
		c0.359,3.735,2.036,7.221,4.732,9.832c3.709,3.735,7.832,7.034,12.29,9.832c5.244,3.4,11.696,7.866,19.357,13.396
		c3.465,1.662,6.724,3.724,9.709,6.145c5.915,4.602,10.043,11.12,11.676,18.435c0.895,3.529,0.895,7.225,0,10.754L349.644,246.531z
		 M567.484,277.809c2.482-4.183,6.32-7.392,10.877-9.095c3.518-1.247,7.358-1.247,10.877,0c3.139,1.167,5.55,3.737,6.514,6.944
		c1.035,4.414,0.093,9.059-2.581,12.72c-3.739,5.714-8.132,10.973-13.089,15.67c-5.885,5.668-12.548,10.468-19.787,14.256
		c-8.011,4.22-16.606,7.223-25.502,8.91c-10.013,1.851-20.281,1.851-30.295,0c-11.449,11.902-24.425,22.234-38.591,30.725
		c-12.436,7.777-26.752,12.025-41.417,12.29c-12.618,0.644-25.128-2.618-35.825-9.34c-8.897-6.251-15.62-15.123-19.234-25.379
		c-4.164-12.08-5.979-24.845-5.346-37.607c0.527-15.502,2.44-30.926,5.715-46.087c3.639-17.231,8.193-34.257,13.642-51.004
		c17.943-55.305,22.736-73.74,49.16-127.017c4.097-8.439,6.862-14.113,8.296-17.022c1.36-4.128,4.922-7.144,9.217-7.804
		c4.862-0.611,9.8,0.067,14.318,1.966c5.654,2.259,10.985,5.255,15.854,8.91c5.342,3.888,10.137,8.476,14.256,13.642
		c3.848,4.794,6.955,10.138,9.217,15.854c2.076,4.806,2.508,10.163,1.229,15.24c-2.646,7.119-6.002,13.954-10.016,20.401
		c-27.161,45.903-30.11,40.373-54.998,85.723c-9.258,16.919-17.452,33.306-24.58,49.16c-6.383,13.495-11.525,27.543-15.362,41.97
		c-3.011,9.493-3.372,19.628-1.045,29.312c2.376,7.374,8.726,11.061,19.05,11.061c8.191-0.496,15.884-4.101,21.508-10.078
		c8.035-7.647,15.15-16.205,21.2-25.502c-6.75-6.16-11.735-14.008-14.441-22.736c-2.803-8.934-3.948-18.306-3.38-27.652
		c1.259-19.647,8.126-38.521,19.787-54.383c5.678-7.692,12.642-14.344,20.586-19.664c7.565-5.213,16.266-8.541,25.379-9.709
		l2.95-0.614c1.125-0.078,2.254-0.078,3.38,0c3.788,0.051,7.567,0.379,11.307,0.983c4.5,0.678,8.897,1.917,13.089,3.687
		c4.543,1.985,8.703,4.751,12.29,8.173c4.099,3.863,7.109,8.738,8.726,14.134c1.956,6.886,2.684,14.062,2.151,21.2
		c-0.834,10.262-3.174,20.345-6.944,29.926c-3.4,8.957-7.51,17.629-12.29,25.932c-5.47,9.728-11.631,19.051-18.435,27.898
		c17.624-1.28,33.591-10.861,43.015-25.809L567.484,277.809z M495.71,202.471h-0.307c-3.154,0-6.719,2.786-10.692,8.357
		c-4.298,6.286-7.672,13.156-10.016,20.401c-2.822,8.377-4.476,17.103-4.916,25.932c-0.709,8.514,1.063,17.051,5.1,24.58
		c4.752-9.504,8.972-18.927,12.659-28.267c3.36-8.285,6.233-16.759,8.603-25.379c1.695-6.014,2.726-12.196,3.072-18.435
		c0.123-4.752-1.004-7.128-3.38-7.128L495.71,202.471z M677.602,286.043c-10.838,4.092-22.233,6.516-33.797,7.19
		c-8.227,0.362-16.469-0.174-24.58-1.598c-2.267,6.671-3.993,13.514-5.162,20.463c-1.134,5.617-1.134,11.404,0,17.022
		c0.952,4.504,3.399,8.554,6.944,11.491c4.234,3.017,9.374,4.492,14.564,4.179c12.914,0.204,25.727-2.308,37.607-7.374
		c10.477-4.489,20.215-10.539,28.881-17.943c13.619-11.804,24.431-26.5,31.647-43.015c1.812-4.789,5.024-8.922,9.217-11.86
		c2.846-2.043,6.485-2.635,9.832-1.598c3.209,1.266,5.534,4.102,6.145,7.497c0.852,5.412-0.007,10.954-2.458,15.854
		c-3.435,8.555-7.892,16.664-13.273,24.15c-6.986,10.132-15.247,19.323-24.58,27.345c-10.68,9.09-22.65,16.545-35.518,22.122
		c-14.414,6.278-29.998,9.42-45.719,9.217c-32.905,2.546-62.496-19.965-68.824-52.355c-3.443-16.028-3.191-32.629,0.737-48.545
		c4.01-17.447,11.401-33.94,21.753-48.546c10.802-15.302,24.783-28.089,40.987-37.484c17.797-10.141,38.022-15.24,58.5-14.748
		c11.52-0.709,23.009,1.802,33.183,7.251c7.15,4.184,12.477,10.892,14.932,18.804c2.314,8.364,2.314,17.199,0,25.563
		c-2.468,9.706-6.628,18.9-12.29,27.161c-6.055,8.867-13.291,16.868-21.508,23.781c-8.059,6.956-17.328,12.371-27.345,15.977
		L677.602,286.043z M668.876,265.15c9.853-3.829,18.686-9.886,25.809-17.698c6.486-6.828,11.634-14.811,15.178-23.535
		c2.901-6.558,3.799-13.827,2.581-20.893c-0.973-5.633-6.183-9.52-11.86-8.849c-6.341,0.364-12.424,2.634-17.452,6.514
		c-7.051,4.977-13.505,10.751-19.234,17.206c-6.747,7.572-12.91,15.645-18.435,24.15c-5.877,8.888-11.212,18.122-15.977,27.652
		c5.946,0.817,11.965,0.961,17.943,0.43c7.33-0.665,14.529-2.362,21.385-5.039L668.876,265.15z M860.969,246.531
		c-1.856,5.975-4.327,11.742-7.374,17.206c-3.523,6.719-7.415,13.642-11.675,20.77l-12.29,21.2c-3.6,6.094-6.882,12.37-9.832,18.804
		c-2.106,4.133-3.36,8.646-3.687,13.273c0,3.277,2.048,4.67,6.145,4.179c6.363-0.902,12.311-3.684,17.083-7.989
		c5.972-4.962,11.335-10.614,15.977-16.837c5.056-6.636,9.576-13.664,13.519-21.016c3.511-6.428,6.69-13.033,9.525-19.787
		c1.812-4.789,5.024-8.922,9.218-11.86c2.836-2.064,6.476-2.678,9.832-1.659c3.209,1.266,5.534,4.102,6.145,7.497
		c0.844,5.412-0.015,10.952-2.458,15.854c-3.222,8.424-7.063,16.599-11.491,24.457c-5.224,9.723-11.399,18.903-18.435,27.407
		c-7.179,8.635-15.584,16.171-24.949,22.368c-9.085,6.085-19.791,9.297-30.725,9.217c-8.04,0.578-15.985-2.026-22.122-7.251
		c-5.257-5.201-8.887-11.82-10.446-19.049c-1.88-8.676-2.336-17.601-1.352-26.424c0.95-10.137,2.592-20.198,4.916-30.111
		c2.35-9.976,5.222-19.821,8.603-29.496c3.277-9.545,6.247-17.739,8.91-24.58v-0.43c2.022-5.206,1.332-11.076-1.844-15.67
		c-3.199-4.021-6.691-7.8-10.446-11.307c-2.13,5.326-4.793,11.737-7.989,19.234c-3.195,7.497-6.35,15.137-9.463,22.921
		c-3.154,7.784-6.227,15.158-9.218,22.122l-7.374,16.899c-1.702,4.736-5.094,8.675-9.525,11.061c-3.04,1.595-6.669,1.595-9.709,0
		c-2.929-1.813-4.993-4.743-5.715-8.111c-0.933-4.457-0.049-9.103,2.458-12.904c1.803-3.113,4.056-7.579,6.76-13.396l8.48-18.804
		c3.032-6.719,6.104-13.724,9.217-21.016l8.787-20.033c2.622-6.063,4.793-11.286,6.514-15.67c1.721-4.383,2.704-6.985,2.95-7.804
		c-0.295-7.451,1.047-14.877,3.933-21.753c1.37-5.099,4.619-9.49,9.095-12.29c3.24-2.034,7.178-2.635,10.877-1.659
		c3.35,1.064,6.01,3.633,7.19,6.944c1.378,4.43,0.866,9.232-1.413,13.273c-2.508,4.113-3.866,8.825-3.933,13.642
		c0.359,3.735,2.036,7.221,4.732,9.832c3.709,3.735,7.832,7.034,12.29,9.832c5.326,3.4,11.798,7.866,19.418,13.396
		c3.465,1.662,6.724,3.724,9.709,6.145c5.915,4.602,10.043,11.12,11.675,18.435c0.774,3.559,0.648,7.256-0.369,10.754
		L860.969,246.531z M179.857,455.829c15.117,0,22.859,7.988,22.859,21.999v2.827h-14.748v-3.687c0-6.145-2.765-8.603-7.681-8.603
		s-7.743,2.458-7.743,8.603c0,18.066,30.356,21.507,30.356,46.456c0,14.011-7.989,21.999-23.105,21.999s-23.105-7.989-23.105-21.999
		v-5.408h14.625v6.145c0,6.145,3.072,8.48,7.989,8.48s8.111-2.274,8.111-8.48c0-18.005-30.295-21.385-30.295-46.395
		C156.998,463.818,164.495,455.829,179.857,455.829L179.857,455.829z M243.765,544.379h-15.547v-87.505h15.485v37.484h17.575
		v-37.484h15.793v87.566h-15.793v-37.484h-17.513V544.379z M303.618,477.767c0-13.949,8.296-21.938,23.535-21.938
		c15.24,0,23.535,7.989,23.535,21.999v45.596c0,14.011-8.296,21.999-23.535,21.999c-15.24,0-23.535-7.989-23.535-21.999V477.767z
		 M319.103,524.223c0,6.145,3.072,8.603,7.988,8.603s8.111-2.458,8.111-8.603v-47.316c0-6.145-3.073-8.603-7.989-8.603
		s-8.111,2.458-8.111,8.603V524.223z M423.199,478.381v11.43c0,14.011-7.62,21.63-23.105,21.63h-7.374v32.876h-15.362v-87.443
		h22.736C415.579,456.874,423.199,464.494,423.199,478.381L423.199,478.381z M392.474,469.287v29.619h7.374
		c4.916,0,7.558-2.028,7.558-8.234v-13.15c0-6.145-2.704-8.234-7.62-8.234L392.474,469.287z M291.082,604.354
		c-5.823-6.706-14.502-10.224-23.351-9.463c-14.379,2.704-33.675,23.965-33.675,23.965s-11.798,13.027-21.876,9.709
		c-10.078-3.318-6.145-18.435-6.145-18.435c-7.796,1.979-12.512,9.903-10.533,17.699c0.242,0.953,0.58,1.879,1.008,2.764
		c6.514,15.67,33.797,14.502,43.629,12.782c19.081-2.716,36.843-11.308,50.819-24.58c13.976,13.272,31.738,21.864,50.819,24.58
		c9.955,1.721,36.87,2.888,43.629-12.782c3.332-7.321,0.098-15.956-7.222-19.288c-0.724-0.329-1.473-0.599-2.241-0.806
		c0,0,4.056,14.994-6.145,18.435c-10.201,3.441-21.876-9.648-21.876-9.648s-19.295-21.323-33.675-23.965
		C305.534,594.514,296.95,597.861,291.082,604.354z"/>
	<g>
		<path fill="#FFFFFF" d="M17.516,633.916c-3.371-3.659-6.686-7.404-9.941-11.234C3.7,625.981-0.175,629.28-4.05,632.58
			c2.276,2.678,4.579,5.315,6.91,7.913c-2.176,1.958-4.351,3.916-6.527,5.875c-2.384-2.657-4.741-5.355-7.069-8.094
			c-6.425,5.47-12.849,10.941-19.274,16.411c-2.677-3.15-5.319-6.351-7.924-9.603c15.125-12.118,30.251-24.236,45.376-36.353
			c5.333,6.657,10.844,13.065,16.52,19.227C21.814,629.942,19.665,631.929,17.516,633.916z"/>
		<path fill="#FFFFFF" d="M39.171,643.499c2.502,2.408,5.032,4.772,7.587,7.093C35.529,663.018,24.3,675.444,13.071,687.87
			c3.858,3.503,7.768,6.919,11.728,10.247c-1.693,2.023-3.386,4.047-5.078,6.07c-7.085-5.955-14.015-12.185-20.774-18.69
			C12.355,671.498,25.763,657.498,39.171,643.499z"/>
		<path fill="#FFFFFF" d="M37.295,718.163c14.864-13.084,29.304-26.562,43.306-40.411c3.372,2.383,6.777,4.7,10.213,6.952
			c-7.724,18.123-14.957,36.508-21.69,55.131c-3.224-1.981-6.426-4.009-9.606-6.086c1.555-3.712,3.129-7.414,4.72-11.106
			c-3.051-2.016-6.08-4.078-9.087-6.185c-2.845,2.839-5.706,5.664-8.584,8.476C43.453,722.724,40.361,720.468,37.295,718.163z
			 M75.548,697.26c0.2-0.471,0.399-0.941,0.6-1.412c-0.162-0.11-0.324-0.221-0.487-0.331c-0.363,0.359-0.727,0.719-1.09,1.078
			c-4.287,4.484-8.613,8.937-12.977,13.358c2.096,1.457,4.203,2.891,6.321,4.303C70.416,708.566,72.961,702.901,75.548,697.26z"/>
		<path fill="#FFFFFF" d="M103.295,758.653c-2.689-1.319-5.367-2.669-8.033-4.049c5.782-18.844,12.021-37.503,18.708-55.96
			c2.7,1.488,5.416,2.939,8.147,4.352c-3.462,9.557-6.821,19.158-10.079,28.801c-0.226,0.595-0.451,1.191-0.676,1.786
			c0.239,0.12,0.478,0.24,0.717,0.36c0.373-0.521,0.746-1.043,1.118-1.564c5.876-8.331,11.649-16.724,17.318-25.177
			c2.152,1.042,4.313,2.062,6.482,3.059c-2.938,9.742-5.764,19.525-8.48,29.348c-0.167,0.619-0.334,1.237-0.501,1.856
			c0.243,0.108,0.487,0.216,0.731,0.324c0.317-0.552,0.634-1.104,0.951-1.656c5.382-8.641,10.665-17.334,15.848-26.078
			c2.807,1.202,5.627,2.365,8.458,3.492c-9.997,16.892-20.437,33.566-31.314,50.004c-2.741-1.172-5.471-2.375-8.191-3.609
			c2.182-9.092,4.474-18.146,6.877-27.161c0.302-1.112,0.607-2.222,0.912-3.333c-0.119-0.056-0.238-0.112-0.358-0.169
			c-0.664,0.941-1.33,1.881-1.998,2.821C114.491,743.679,108.944,751.197,103.295,758.653z"/>
		<path fill="#FFFFFF" d="M173.891,724.781c3.112,1.029,6.237,2.014,9.371,2.955c-4.847,16.033-9.694,32.066-14.541,48.1
			c4.732,1.421,9.485,2.755,14.257,4.001c-0.671,2.551-1.343,5.102-2.014,7.653c-8.538-2.23-17.019-4.735-25.426-7.514
			C161.656,761.578,167.773,743.179,173.891,724.781z"/>
		<path fill="#FFFFFF" d="M215.541,735.817c7.307,1.473,14.653,2.718,22.024,3.733c-0.403,2.899-0.807,5.799-1.21,8.698
			c-4.25-0.586-8.491-1.245-12.722-1.979c-0.878,5.013-1.756,10.027-2.634,15.04c3.17,0.55,6.347,1.06,9.528,1.53
			c-0.459,3.078-0.918,6.156-1.378,9.233c-3.259-0.482-6.512-1.004-9.76-1.568c-0.919,5.247-1.838,10.495-2.757,15.742
			c4.699,0.815,9.409,1.548,14.129,2.198c-0.404,2.899-0.807,5.799-1.21,8.698c-8.568-1.181-17.106-2.627-25.6-4.34
			C207.814,773.808,211.677,754.813,215.541,735.817z"/>
		<path fill="#FFFFFF" d="M274.737,758.32c0.062-1.897,0.036-4.035-0.555-5.716c-0.596-1.604-1.565-2.745-3.128-2.812
			c-2.573-0.035-3.525,2.206-3.707,5.603c-0.105,1.976,0.817,4.086,2.235,6.367c1.418,2.282,3.337,4.655,5.293,7.169
			c2.327,3.001,4.715,6.056,6.556,9.008c1.841,2.953,3.133,5.965,3.116,9.128c-0.023,3.876-0.854,7.516-3.282,10.175
			c-2.423,2.652-6.357,4.336-12.557,4.073c-7.25-0.323-11.207-2.696-13.236-6.016c-2.033-3.33-2.178-7.555-1.818-11.889
			c3.573,0.031,7.141,0.013,10.705-0.051c-0.138,2.448-0.179,4.902,0.539,6.763c0.611,1.933,1.783,3.266,4.153,3.37
			c3.302,0.14,4.626-2.519,4.742-6.233c0.061-1.897-1.081-4.151-2.585-6.504c-0.853-1.141-1.698-2.366-2.631-3.596
			c-1.966-2.467-4.074-5.274-6.211-8.342c-2.137-3.068-3.631-6.194-4.433-9.351c-0.451-1.543-0.604-3.143-0.479-4.72
			c0.251-3.154,1.361-6.474,3.64-8.929c2.278-2.377,5.532-3.981,10.12-3.859c5.845,0.17,9.215,2.341,11.1,5.456
			c1.879,3.187,2.427,7.061,2.406,10.305C281.399,757.963,278.071,758.163,274.737,758.32z"/>
		<path fill="#FFFFFF" d="M323.926,756.699c-0.188-1.889-0.495-4.005-1.302-5.595c-0.8-1.513-1.912-2.518-3.47-2.381
			c-2.56,0.301-3.207,2.646-2.942,6.037c0.156,1.972,1.346,3.945,3.055,6.022c1.705,2.078,3.92,4.182,6.193,6.418
			c2.702,2.673,5.472,5.391,7.69,8.077c2.214,2.688,3.893,5.506,4.292,8.644c0.487,3.845,0.14,7.563-1.919,10.515
			c-2.058,2.945-5.741,5.127-11.924,5.673c-7.234,0.623-11.469-1.215-13.915-4.243c-2.456-3.037-3.155-7.207-3.367-11.55
			c3.545-0.434,7.081-0.915,10.607-1.443c0.185,2.445,0.467,4.883,1.423,6.635c0.859,1.837,2.197,3.006,4.563,2.801
			c3.293-0.291,4.255-3.099,3.882-6.796c-0.189-1.889-1.617-3.974-3.418-6.112c-0.996-1.021-1.994-2.125-3.081-3.223
			c-2.276-2.19-4.735-4.698-7.258-7.462c-2.52-2.764-4.413-5.669-5.62-8.694c-0.649-1.471-1.012-3.037-1.095-4.617
			c-0.165-3.159,0.498-6.595,2.433-9.325c1.945-2.653,4.962-4.666,9.53-5.142c5.82-0.592,9.448,1.122,11.732,3.965
			c2.283,2.915,3.336,6.684,3.742,9.903C330.492,755.478,327.214,756.11,323.926,756.699z"/>
		<path fill="#FFFFFF" d="M382.648,730.022c3.151-0.867,6.292-1.779,9.423-2.734c4.916,16.012,9.832,32.024,14.748,48.037
			c4.728-1.442,9.434-2.972,14.117-4.589c0.866,2.492,1.731,4.984,2.596,7.477c-8.377,2.893-16.829,5.511-25.343,7.855
			C393.009,767.386,387.828,748.704,382.648,730.022z"/>
		<path fill="#FFFFFF" d="M467.712,746.725c0.968,2.171,1.363,4.363,1.128,6.509c-0.151,1.839-0.823,3.846-2.231,5.836
			c-1.371,2.061-3.685,3.944-7.188,5.532c-3.506,1.587-6.535,2.123-8.987,1.793c-2.418-0.257-4.266-1.119-5.746-2.219
			c-1.765-1.24-3.153-2.982-4.15-5.139c-4.338-10.567-8.676-21.135-13.014-31.702c-0.784-2.16-1.074-4.35-0.828-6.422
			c0.165-1.782,0.662-3.703,1.885-5.515c1.226-1.816,3.255-3.556,6.258-4.917c3-1.36,5.575-1.704,7.754-1.429
			c2.176,0.272,4.043,1.119,5.499,2.167c1.728,1.178,3.191,2.836,4.303,4.847C457.502,726.286,462.607,736.506,467.712,746.725z
			 M443.148,720.518c-0.668-1.436-1.479-2.279-2.73-2.75c-0.593-0.164-1.372-0.066-2.14,0.282c-1.623,0.734-1.942,2.085-1.87,3.179
			c-0.002,0.692,0.201,1.383,0.521,2.106c4.628,10.444,9.256,20.888,13.884,31.332c0.673,1.519,1.597,2.325,2.907,2.694
			c0.641,0.146,1.407,0.063,2.265-0.325c1.812-0.822,2.269-2.081,2.146-3.333c0.05-0.634-0.157-1.324-0.524-2.113
			C452.788,741.233,447.968,730.876,443.148,720.518z"/>
		<path fill="#FFFFFF" d="M515.875,718.324c1.257,2.017,1.942,4.141,1.99,6.312c0.092,1.853-0.317,3.95-1.464,6.138
			c-1.102,2.253-3.171,4.466-6.468,6.557c-3.301,2.091-6.263,3.064-8.761,3.092c-2.455,0.095-4.418-0.494-6.046-1.374
			c-1.932-0.977-3.551-2.508-4.835-4.508c-5.743-9.876-11.486-19.751-17.228-29.627c-1.071-2.034-1.651-4.168-1.681-6.263
			c-0.071-1.795,0.171-3.776,1.156-5.755c0.986-1.984,2.787-4.009,5.615-5.8c2.826-1.792,5.359-2.512,7.579-2.559
			c2.217-0.05,4.199,0.517,5.796,1.345c1.887,0.917,3.573,2.351,4.952,4.189C502.944,699.489,509.409,708.906,515.875,718.324z
			 M487.801,695.864c-0.859-1.33-1.783-2.051-3.098-2.336c-0.616-0.077-1.383,0.135-2.106,0.593
			c-1.528,0.968-1.669,2.357-1.452,3.435c0.09,0.689,0.385,1.345,0.801,2.018c6.017,9.711,12.034,19.422,18.051,29.133
			c0.875,1.412,1.908,2.079,3.267,2.255c0.661,0.052,1.418-0.142,2.225-0.654c1.706-1.082,1.997-2.402,1.709-3.63
			c-0.033-0.638-0.332-1.294-0.804-2.025C500.196,715.057,493.999,705.46,487.801,695.864z"/>
		<path fill="#FFFFFF" d="M516.807,659.579c4.35,5.199,8.7,10.398,13.05,15.598c0.103-0.086,0.205-0.172,0.308-0.259
			c-0.075-0.35-0.15-0.7-0.226-1.05c-1.858-6.89-3.853-13.713-5.982-20.462c2.504-2.221,4.985-4.483,7.439-6.787
			c2.042,6.837,3.937,13.753,5.684,20.743c11.432,7.234,23.125,14.161,35.069,20.763c-2.847,2.69-5.723,5.332-8.628,7.926
			c-7.681-4.456-15.251-9.05-22.706-13.776c-0.336-0.233-0.671-0.466-1.006-0.7c-0.079,0.067-0.158,0.135-0.236,0.202
			c0.099,0.436,0.197,0.872,0.294,1.308c0.363,1.77,0.717,3.544,1.062,5.322c4.401,5.26,8.802,10.52,13.203,15.78
			c-3.048,2.562-6.125,5.073-9.23,7.534c-12.011-15.221-24.023-30.441-36.034-45.662
			C511.538,663.944,514.185,661.783,516.807,659.579z"/>
		<path fill="#FFFFFF" d="M571.589,626.935c-1.446-1.23-3.141-2.533-4.864-3.071c-1.664-0.487-3.222-0.368-4.341,0.921
			c-1.786,2.17-0.676,4.364,1.864,6.628c1.478,1.315,3.761,1.845,6.521,2.052c2.757,0.211,5.929,0.049,9.24-0.068
			c3.944-0.128,7.974-0.283,11.553-0.042c3.576,0.246,6.826,0.995,9.295,2.972c3.025,2.423,5.311,5.401,5.735,9.142
			c0.42,3.733-0.952,8.166-5.392,13.281c-5.204,5.968-9.758,7.815-13.742,7.46c-3.997-0.358-7.409-2.863-10.563-5.857
			c2.453-2.976,4.87-5.993,7.251-9.052c1.825,1.636,3.723,3.194,5.672,3.741c1.932,0.682,3.777,0.517,5.478-1.437
			c2.364-2.724,1.183-5.508-1.651-7.91c-1.447-1.23-3.995-1.651-6.868-1.829c-1.479,0.02-3.015-0.023-4.617,0.008
			c-3.278,0.142-6.918,0.187-10.781,0.087c-3.861-0.102-7.33-0.787-10.35-2.075c-1.516-0.58-2.876-1.445-4.027-2.53
			c-2.302-2.17-4.152-5.163-4.527-8.605c-0.314-3.395,0.645-7.133,3.874-10.963c4.124-4.871,8.135-6.431,11.871-6.124
			c3.786,0.357,7.201,2.284,9.732,4.314C575.867,621,573.746,623.986,571.589,626.935z"/>
	</g>
	<path fill="#FFFFFF" d="M112.794-8.542c5.227-13.106,15.827-20.471,27.639-26.475c12.799-6.506,26.12-11.98,39.157-18.024
		c3.495-1.62,6.728-3.799,10.193-5.492c2.526-1.234,5.22-2.918,7.868-2.973c10.702-0.223,20.949-3.127,31.423-4.626
		c20.693-2.961,41.463-3.926,62.267-1.024c4.642,0.648,9.229,1.881,13.885,2.207c9.688,0.679,19.144-1.186,28.362-3.947
		c13.377-4.006,26.642-8.386,39.982-12.52c2.601-0.806,5.325-1.213,8.022-1.81c0.174-1.892,0.237-3.726,0.529-5.524
		c0.966-5.943,3.001-6.979,8.221-4.283c0.189-0.049,0.437-0.041,0.557-0.161c4.537-4.563,7.113-3.99,9.334,2.087
		c0.035,0.096,0.097,0.19,0.103,0.287c0.511,7.715,5.219,13.428,9.12,19.586c1.654,2.612,2.806,5.669,3.592,8.678
		c1.999,7.649,7.366,12.456,13.388,16.815c0,0.409,0,0.817,0,1.226c-1.998,3.498-7.575,3.27-12.03,1.126
		c-2.975-1.432-5.767-3.244-8.908-4.656c3.474,3.916,6.948,7.831,10.422,11.747c-0.065,0.332-0.129,0.664-0.194,0.996
		c-1.757-0.136-3.754,0.214-5.222-0.509c-2.979-1.466-6.003-3.156-8.41-5.397c-4.069-3.787-8.45-4.53-13.206-2.208
		c-10.955,5.349-19.176,13.041-21.177,25.837c-0.453,2.895-0.17,5.093,2.671,6.714c6.093,3.477,12.106,7.099,18.063,10.803
		c3.374,2.098,6.594,4.447,9.847,6.736c6.002,4.223,11.784,8.729,19.435,9.863c3.371,0.5,3.935,2.968,1.79,5.627
		c-3.114,3.859-6.717,4.533-11.086,2.049c-0.707-0.402-1.432-0.814-2.039-1.346c-9.982-8.748-22.081-12.853-34.683-15.875
		c-5.869-1.407-11.842-2.792-16.477-6.893c-1.76-1.557-3.223-4.041-3.709-6.337c-1.469-6.942-4.956-9.284-12.628-7.21
		c0.895,3.79,1.781,7.614,2.704,11.429c0.881,3.643,2.294,7.239,2.581,10.925c0.4,5.128-2.259,7.569-7.288,8.401
		c-3.169,0.524-6.329,1.371-9.349,2.469c-4.562,1.659-9,0.989-13.498,0.174c0.161-5.215,2.474-7.666,7.401-7.951
		c2.241-0.13,4.518,0.072,6.727-0.241c3.863-0.547,5.089-2.74,3.485-6.331c-0.989-2.216-2.591-4.151-3.675-6.333
		c-1.823-3.67-3.452-7.436-5.507-11.912c-3.775-0.432-8.726-0.956-13.665-1.574c-9.055-1.133-17.848-3.239-26.163-7.127
		c-1.372-0.641-2.873-1.076-4.36-1.383c-2.114-0.436-3.849,0.241-4.812,2.309c-6.274,13.48-17.13,20.547-31.572,22.672
		c-1.696,0.25-3.42,0.688-4.985,1.372c-5.688,2.486-7.122,7.552-3.747,12.792c1.817,2.822,3.552,5.702,5.504,8.427
		c0.443,0.618,1.622,0.946,2.482,0.985c2.94,0.132,5.87,0.142,8.265,2.113c-0.014,0.387-0.028,0.774-0.042,1.161
		c-5.59,0.008-11.181,0.088-16.768-0.052c-0.837-0.021-1.804-0.931-2.447-1.662c-5.599-6.367-9.815-13.497-11.943-21.788
		c-0.775-3.021-0.291-4.992,2.799-6.703c4.056-2.246,7.656-5.317,11.452-8.033c-0.131-0.229-0.262-0.458-0.393-0.686
		c-0.607,0.169-1.207,0.367-1.821,0.503c-6.148,1.36-12.27,3.673-18.455,3.856c-12.027,0.358-20.481,6.191-27.138,15.34
		c-2.551,3.506-4.31,7.598-6.331,11.475c-1.904,3.653-7.17,4.203-9.169,0.672c-0.645-1.139-0.529-3.329,0.158-4.497
		c3.303-5.611,6.868-11.072,10.455-16.51c1.288-1.953,2.995-3.625,4.343-5.543c2.66-3.783,5.706-6.82,10.611-7.559
		c1.504-0.227,2.921-1.406,4.255-2.328c4.191-2.894,8.323-5.872,12.711-8.983c-0.278-0.469-0.71-1.199-1.25-2.11
		c-3.598,1.381-7.084,2.767-10.603,4.063C181.938-15.02,163.844-8.91,144.98-5.742c-7.886,1.324-15.982,2.024-23.999,1.521
		c-3.789-0.238-6.798-0.592-9.027-1.359C112.174-6.605,112.403-7.491,112.794-8.542z"/>
	<g>
		<path fill="#FFFFFF" d="M0.418-122.9c-1.503-2.289-3.007-4.577-4.51-6.866c9.206-6.047,18.555-11.775,28.032-17.183
			c1.357,2.379,2.713,4.757,4.07,7.136c-3.155,1.801-6.295,3.637-9.421,5.509c8.326,13.905,16.653,27.811,24.979,41.716
			c-2.72,1.63-5.428,3.29-8.123,4.979c-8.609-13.732-17.217-27.464-25.826-41.197C6.536-126.873,3.469-124.905,0.418-122.9z"/>
		<path fill="#FFFFFF" d="M40.213-155.859c3.098-1.625,6.209-3.218,9.332-4.777c3.452,6.917,6.903,13.834,10.355,20.752
			c3.011-1.504,6.034-2.975,9.068-4.414c-3.311-6.985-6.623-13.971-9.934-20.956c3.175-1.506,6.361-2.978,9.558-4.417
			c7.769,17.28,15.539,34.56,23.308,51.841c-2.85,1.282-5.69,2.594-8.52,3.937c-3.631-7.66-7.262-15.32-10.894-22.981
			c-2.984,1.415-5.957,2.863-8.919,4.342c3.785,7.585,7.57,15.171,11.355,22.756c-2.784,1.39-5.556,2.809-8.318,4.258
			C57.807-122.299,49.01-139.079,40.213-155.859z"/>
		<path fill="#FFFFFF" d="M111.865-126.259c-6.958-17.623-13.917-35.245-20.875-52.868c8.471-3.346,17.01-6.462,25.607-9.349
			c0.872,2.596,1.743,5.192,2.615,7.788c-5.219,1.753-10.417,3.591-15.591,5.516c1.731,4.654,3.462,9.309,5.193,13.963
			c3.621-1.347,7.253-2.65,10.898-3.91c0.895,2.588,1.79,5.176,2.685,7.764c-3.584,1.239-7.157,2.521-10.718,3.846
			c1.973,5.305,3.946,10.611,5.919,15.916c4.771-1.775,9.564-3.47,14.377-5.086c0.905,2.695,1.81,5.391,2.715,8.086
			C127.027-132.019,119.416-129.241,111.865-126.259z"/>
		<path fill="#FFFFFF" d="M181.118-147.548c-4.145-18.488-8.289-36.975-12.434-55.463c4.456-0.998,8.922-1.937,13.398-2.817
			c5.402-1.062,9.826-0.53,13.193,1.509c3.37,2.043,5.403,5.415,6.159,10.069c0.455,2.794,0.291,5.336-0.466,7.626
			c-0.759,2.292-2.148,4.391-4.154,6.314c2.797,0.863,4.982,2.314,6.561,4.322c1.577,2.012,2.626,4.705,3.167,8.067
			c0.823,5.124,0.222,9.098-1.744,11.939c-1.97,2.846-5.409,4.694-10.358,5.651C189.989-149.466,185.548-148.54,181.118-147.548z
			 M183.438-181.967c1.302-0.265,2.605-0.525,3.909-0.779c1.767-0.344,3.015-1.272,3.756-2.798c0.74-1.523,0.895-3.495,0.45-5.919
			c-0.487-2.655-1.35-4.481-2.599-5.475c-1.25-0.993-3.046-1.27-5.376-0.811c-1.075,0.211-2.15,0.426-3.224,0.645
			C181.383-192.058,182.411-187.012,183.438-181.967z M188.42-157.508c1.32-0.268,2.64-0.531,3.962-0.789
			c1.982-0.385,3.312-1.299,4.001-2.76c0.689-1.458,0.788-3.568,0.286-6.327c-0.553-3.042-1.477-5.118-2.786-6.223
			c-1.305-1.102-3.222-1.419-5.729-0.926c-1.026,0.202-2.051,0.407-3.076,0.616C186.192-168.447,187.306-162.978,188.42-157.508z"/>
		<path fill="#FFFFFF" d="M228.113-155.575c-2.235-18.814-4.471-37.627-6.706-56.441c3.384-0.401,6.771-0.77,10.161-1.105
			c1.597,16.129,3.195,32.257,4.792,48.386c4.814-0.476,9.633-0.878,14.457-1.207c0.186,2.732,0.373,5.464,0.559,8.196
			C243.609-157.217,235.852-156.494,228.113-155.575z"/>
		<path fill="#FFFFFF" d="M265.635-158.499c2.554-19.055,5.506-38.09,8.858-57.094c4.48-0.074,8.961-0.09,13.441-0.049
			c3.475,18.978,6.553,37.991,9.234,57.026c-3.142-0.094-6.284-0.157-9.427-0.188c-0.577-4.107-1.17-8.212-1.78-12.317
			c-3.169-0.019-6.339-0.006-9.508,0.038c-0.619,4.11-1.22,8.221-1.805,12.333C271.644-158.696,268.639-158.612,265.635-158.499z
			 M277.544-179.156c2.435-0.028,4.87-0.037,7.305-0.029c-1.061-7.917-2.174-15.832-3.341-23.742
			c-0.21,0.001-0.421,0.001-0.631,0.002C279.71-195.005,278.599-187.082,277.544-179.156z"/>
		<path fill="#FFFFFF" d="M314.054-172.416c0.624-9.689,1.249-19.377,1.873-29.066c0.286-4.471,1.913-7.889,4.945-10.22
			c3.023-2.328,7.093-3.287,12.141-2.807c4.768,0.456,8.407,2.175,10.859,5.088c2.455,2.916,3.369,6.62,2.805,11.09
			c-0.227,1.807-0.454,3.614-0.681,5.421c-3.378-0.424-6.759-0.813-10.143-1.168c0.218-2.072,0.436-4.144,0.653-6.216
			c0.206-1.954-0.078-3.466-0.852-4.535c-0.776-1.066-2.03-1.688-3.757-1.851c-1.727-0.164-3.076,0.21-4.037,1.113
			c-0.964,0.904-1.524,2.336-1.689,4.294c-0.891,10.536-1.783,21.072-2.674,31.608c-0.166,1.959,0.116,3.468,0.838,4.53
			c0.72,1.063,1.868,1.664,3.45,1.813c1.581,0.15,2.82-0.225,3.73-1.133c0.907-0.909,1.47-2.337,1.675-4.292
			c0.27-2.567,0.54-5.134,0.81-7.701c3.265,0.343,6.527,0.718,9.786,1.127c-0.247,1.963-0.493,3.926-0.74,5.889
			c-0.623,4.942-2.35,8.589-5.121,10.98c-2.777,2.393-6.38,3.344-10.879,2.918c-4.609-0.435-7.982-2.033-10.174-4.871
			C314.681-163.242,313.722-167.239,314.054-172.416z"/>
		<path fill="#FFFFFF" d="M360.762-152.33c3.154-18.682,6.308-37.364,9.462-56.046c3.396,0.573,6.789,1.179,10.176,1.819
			c-1.486,7.853-2.972,15.707-4.458,23.56c0.463-0.873,0.864-1.576,1.191-2.115c0.33-0.536,0.616-0.954,0.854-1.257
			c4.5-6.021,9.125-11.985,13.874-17.888c3.344,0.71,6.683,1.453,10.016,2.229c-5.21,5.433-10.288,10.939-15.234,16.516
			c1.475,13.055,2.642,26.097,3.503,39.114c-3.118-0.734-6.241-1.437-9.37-2.106c-0.541-9.857-1.24-19.725-2.099-29.602
			c-1.592,1.877-3.169,3.761-4.731,5.653c-1.372,7.248-2.743,14.496-4.115,21.744C366.813-151.279,363.79-151.819,360.762-152.33z"
			/>
		<path fill="#FFFFFF" d="M434.213-133.695c6.138-17.925,12.277-35.849,18.415-53.774c8.569,2.934,17.079,6.098,25.521,9.49
			c-1.021,2.541-2.042,5.082-3.062,7.623c-5.12-2.057-10.265-4.029-15.434-5.916c-1.702,4.665-3.405,9.33-5.107,13.995
			c3.617,1.32,7.222,2.683,10.815,4.09c-0.998,2.55-1.996,5.1-2.994,7.65c-3.534-1.383-7.08-2.724-10.637-4.022
			c-2.915,7.989-5.83,15.977-8.745,23.966C440.069-131.658,437.145-132.692,434.213-133.695z"/>
		<path fill="#FFFFFF" d="M488.59-159.341c1.803-4.101,4.528-6.743,8.23-7.867c3.693-1.123,7.92-0.592,12.598,1.648
			c4.418,2.117,7.325,5.026,8.686,8.637c1.363,3.615,0.976,7.425-1.093,11.427c-4.454,8.627-8.908,17.254-13.363,25.881
			c-2.287,4.425-5.193,7.238-8.673,8.5c-3.486,1.262-7.271,0.876-11.441-1.117c-4.223-2.016-6.891-4.705-8.042-8.17
			c-1.147-3.46-0.714-7.553,1.364-12.28C480.768-141.568,484.679-150.455,488.59-159.341z M493.947-122.477
			c4.655-9.494,9.31-18.988,13.965-28.482c0.866-1.765,1.11-3.287,0.732-4.565c-0.381-1.278-1.372-2.304-2.972-3.07
			c-1.601-0.765-3.023-0.89-4.252-0.381c-1.233,0.51-2.259,1.657-3.087,3.44c-4.457,9.589-8.913,19.178-13.37,28.766
			c-0.828,1.783-1.075,3.301-0.745,4.554c0.327,1.254,1.223,2.225,2.689,2.924c1.465,0.7,2.782,0.786,3.966,0.256
			C492.053-119.567,493.081-120.713,493.947-122.477z"/>
		<path fill="#FFFFFF" d="M510.904-99.419c7.966-6.576,16.117-12.996,24.45-19.254c1.369-10.016,2.529-20.101,3.478-30.249
			c3.201,1.795,6.388,3.625,9.561,5.493c-0.962,5.91-1.99,11.798-3.081,17.661c0.133,0.081,0.266,0.161,0.399,0.242
			c4.784-3.626,9.624-7.202,14.52-10.724c3.094,1.932,6.172,3.9,9.235,5.903c-8.348,5.374-16.538,10.907-24.569,16.591
			c-1.686,10.584-3.604,21.085-5.75,31.495c-2.787-1.83-5.588-3.628-8.404-5.393c1.512-6.336,2.948-12.702,4.307-19.099
			c-0.101-0.061-0.202-0.123-0.304-0.184c-5.2,4.062-10.331,8.185-15.391,12.369C516.552-96.217,513.734-97.834,510.904-99.419z"/>
	</g>
</g>
</svg>
