<?xml version="1.0" encoding="utf-8"?>
<!-- Generator: Adobe Illustrator 17.0.0, SVG Export Plug-In . SVG Version: 6.00 Build 0)  -->
<!DOCTYPE svg PUBLIC "-//W3C//DTD SVG 1.1//EN" "http://www.w3.org/Graphics/SVG/1.1/DTD/svg11.dtd">
<svg version="1.1" id="Layer_1" xmlns="http://www.w3.org/2000/svg" xmlns:xlink="http://www.w3.org/1999/xlink" x="0px" y="0px"
	 width="720px" height="576px" viewBox="-72 0 720 576" enable-background="new -72 0 720 576" xml:space="preserve">
<g>
	<path d="M218.815,406.785c-23.351-30.778-73.019-32.061-132.171-27.84c-20.973,1.469-38.259-4.355-42.427-10.687
		c-5.343-8.015-12.557-5.53-21.641-2.004c-9.084,3.527-12.611-9.405-12.611-9.405c4.046,3.114,9.85,2.359,12.964-1.687
		c0.241-0.314,0.463-0.643,0.662-0.985c6.092-8.176,1.737-19.103-10.42-17.099c-12.691,1.87-15.843,17.366-11.061,28.748
		c6.145,14.775,19.237,22.549,67.408,18.702c65.458-5.343,121.564-7.214,145.877,24.847c0.738,0.93,2.089,1.085,3.019,0.347
		c0.93-0.738,1.085-2.089,0.347-3.019L218.815,406.785z M21.588,351.748c-1.855,0.909-4.096,0.141-5.004-1.714
		c-0.025-0.051-0.049-0.103-0.072-0.156c6.412-4.275-0.401-10.687-0.401-10.687C24.927,339.404,25.569,350.465,21.588,351.748z
		 M33.076,367.244c0,0,3.366-3.046,7.16,1.87c2.604,3.22,5.591,6.109,8.897,8.603c-15.496-2.592-16.03-10.42-16.03-10.42
		L33.076,367.244z M357.585,409.671c0.928,0.678,2.226,0.501,2.939-0.401c24.313-32.061,80.473-30.191,145.877-24.847
		c48.091,3.954,61.263-3.821,67.461-18.702c4.756-11.382,1.603-26.851-11.061-28.908c-12.21-1.95-16.565,8.977-10.42,17.179
		c2.57,4.411,8.23,5.904,12.641,3.334c0.342-0.199,0.671-0.42,0.985-0.662c0,0-3.58,12.931-12.637,9.405
		c-9.057-3.527-16.404-6.145-21.641,2.004c-4.141,6.412-21.374,12.29-42.4,10.687c-59.206-4.008-108.82-2.805-132.171,28.053
		c-0.65,0.911-0.487,2.17,0.374,2.885L357.585,409.671z M559.889,339.324c0,0-6.84,6.252-0.401,10.687
		c-0.822,1.895-3.025,2.765-4.92,1.942c-0.053-0.023-0.104-0.047-0.156-0.072c-4.008-1.416-3.366-12.477,5.504-12.557H559.889z
		 M526.867,377.717c3.307-2.502,6.295-5.401,8.897-8.63c3.794-4.916,7.133-1.87,7.133-1.87s-0.534,7.882-16.03,10.473V377.717z
		 M79.778,238.065c0.686,1.502,0.686,3.227,0,4.729c-0.74,1.621-1.857,3.041-3.26,4.141c-1.575,1.255-3.309,2.297-5.156,3.099
		c-1.856,0.829-3.815,1.404-5.824,1.71c-1.767,0.321-3.577,0.321-5.343,0c-1.428-0.211-2.694-1.03-3.473-2.244
		c-1.148-2.637-1.365-5.586-0.614-8.363c0.791-4.365,2.27-8.576,4.382-12.477c2.672-5.086,5.898-9.862,9.618-14.24
		c4.472-5.159,9.653-9.656,15.389-13.359c6.616-4.326,13.812-7.69,21.374-9.992c8.991-2.704,18.345-4.011,27.733-3.874
		c8.477-0.311,16.924,1.164,24.794,4.328c5.606,2.311,10.442,6.165,13.946,11.114c2.995,4.549,4.558,9.89,4.489,15.336
		c-0.03,5.842-1.258,11.616-3.607,16.966c-2.549,5.847-6.092,11.208-10.473,15.843c-4.593,4.922-10.02,8.992-16.03,12.023
		c5.054,2.079,9.099,6.047,11.275,11.061c1.922,4.937,2.295,10.342,1.069,15.496c-1.499,6.22-4.224,12.079-8.015,17.233
		c-4.314,6.14-9.582,11.552-15.603,16.03c-6.702,4.958-14.103,8.893-21.962,11.676c-8.657,3.094-17.792,4.631-26.985,4.542
		c-2.259,0.231-4.527-0.336-6.412-1.603c-1.113-0.815-1.721-2.152-1.603-3.527c0.265-1.408,1.046-2.665,2.191-3.527
		c1.351-1.107,3.064-1.678,4.809-1.603c6.603,0.006,13.109-1.58,18.969-4.622c5.568-2.806,10.626-6.527,14.962-11.008
		c4.116-4.218,7.526-9.072,10.099-14.374c2.261-4.502,3.708-9.368,4.275-14.374c0.524-3.805-0.227-7.676-2.137-11.008
		c-2.178-3.175-5.923-4.899-9.752-4.489c-1.745,0.145-3.477-0.413-4.809-1.55c-0.959-0.84-1.439-2.101-1.282-3.366
		c0.317-1.399,1.184-2.613,2.405-3.366c1.836-1.147,3.985-1.689,6.145-1.55c3.827-0.181,7.431-1.849,10.046-4.649
		c3.495-3.386,6.387-7.343,8.55-11.702c2.443-4.791,4.24-9.885,5.343-15.149c1.069-4.983,1.178-10.125,0.321-15.149
		c-0.669-4.425-2.727-8.523-5.878-11.702c-3.822-3.348-8.826-5.022-13.893-4.649c-8.403-0.208-16.752,1.405-24.473,4.729
		c-6.229,2.705-11.893,6.557-16.698,11.355c-3.873,3.917-6.798,8.67-8.55,13.893c-1.575,3.895-1.708,8.225-0.374,12.21
		L79.778,238.065z M97.331,213.752c0.608-1.774,2.153-3.062,4.008-3.34c2.114-0.266,4.261,0.029,6.225,0.855
		c2.451,0.98,4.746,2.312,6.813,3.954c2.266,1.738,4.328,3.728,6.145,5.931c1.682,2.049,3.035,4.347,4.008,6.813
		c0.905,2.089,1.092,4.419,0.534,6.626c-1.187,3.183-2.748,6.215-4.649,9.03c-2.636,4.31-5.789,9.28-9.458,14.908
		c-3.669,5.628-7.632,11.667-11.889,18.114c-4.275,6.412-8.265,12.646-11.969,18.702c-3.705,6.056-6.911,11.551-9.618,16.485
		c-2.098,3.65-3.714,7.557-4.809,11.622c-0.225,1.887-1.31,3.564-2.939,4.542c-1.385,0.772-3.026,0.946-4.542,0.481
		c-1.579-0.549-2.907-1.65-3.74-3.099c-1.112-1.941-1.491-4.216-1.069-6.412c1.002-7.213,2.474-14.353,4.408-21.374
		c1.959-7.356,4.204-14.597,6.733-21.721c2.529-7.125,5.139-14.16,7.828-21.107c2.672-6.768,5.254-12.94,7.748-18.515
		s4.631-10.313,6.412-14.214c1.781-3.919,3.064-6.679,3.847-8.282L97.331,213.752z M228.033,267.508
		c1.011-2.169,3.117-3.621,5.504-3.794c2.719-0.325,5.476,0.043,8.015,1.069c2.626,0.96,4.936,2.623,6.679,4.809
		c1.754,2.282,2.255,5.288,1.336,8.015c-0.767,2.532-1.796,4.977-3.072,7.294c-1.496,2.814-3.135,5.682-4.916,8.603l-5.343,8.683
		c-1.506,2.481-2.879,5.041-4.114,7.668c-0.889,1.647-1.391,3.474-1.469,5.343c0,1.247,0.891,1.817,2.672,1.71
		c2.898-0.375,5.607-1.645,7.748-3.634c2.597-2.156,4.929-4.614,6.947-7.321c2.163-2.837,4.102-5.838,5.798-8.977
		c1.527-2.804,2.909-5.684,4.141-8.63c0.788-2.082,2.184-3.879,4.008-5.156c1.237-0.888,2.82-1.145,4.275-0.695
		c1.392,0.555,2.401,1.786,2.672,3.26c0.367,2.353-0.007,4.762-1.069,6.893c-1.381,3.615-3.024,7.124-4.916,10.5
		c-2.271,4.227-4.956,8.219-8.015,11.916c-3.114,3.752-6.759,7.028-10.821,9.725c-3.95,2.646-8.605,4.042-13.359,4.008
		c-4.172,0.384-8.183-1.706-10.259-5.343c-2.002-3.972-2.993-8.377-2.885-12.824c-3.027,4.843-6.837,9.149-11.275,12.744
		c-4.062,3.376-9.303,4.992-14.561,4.488c-5.102-0.143-9.988-2.093-13.786-5.504c-3.384-3.267-5.711-7.473-6.679-12.076
		c-1.094-5.287-1.094-10.743,0-16.03c1.18-6.072,3.279-11.928,6.225-17.366c3.179-5.939,7.182-11.399,11.889-16.217
		c4.912-5.073,10.706-9.21,17.099-12.21c6.927-3.204,14.376-5.132,21.988-5.691c8.906-0.582,17.84,0.598,26.29,3.473
		c1.967,0.531,3.698,1.707,4.916,3.34c0.998,1.234,1.494,2.798,1.389,4.382c-0.273,1.46-1.285,2.674-2.672,3.206
		c-2.23,0.834-4.675,0.9-6.947,0.187c-4.962-1.261-10.137-1.443-15.175-0.534c-4.756,0.903-9.327,2.601-13.519,5.023
		c-4.231,2.429-8.099,5.442-11.488,8.95c-3.348,3.47-6.387,7.224-9.084,11.221c-2.53,3.663-4.679,7.575-6.412,11.676
		c-1.459,3.429-2.517,7.015-3.153,10.687c-0.538,2.705-0.483,5.494,0.16,8.176c0.405,1.982,2.007,3.498,4.008,3.794
		c2.55,0.431,5.158-0.326,7.08-2.057c2.561-2.143,4.809-4.634,6.679-7.401c2.344-3.384,4.399-6.959,6.145-10.687
		c1.87-3.919,3.562-7.73,5.076-11.435c1.015-3.669,2.066-7.053,3.153-10.153c0.871-2.432,1.916-4.798,3.126-7.08L228.033,267.508z
		 M312.941,275.256c-0.807,2.598-1.881,5.105-3.206,7.481c-1.532,2.921-3.224,5.931-5.076,9.03l-5.343,9.217
		c-1.565,2.649-2.992,5.378-4.275,8.176c-0.916,1.797-1.461,3.759-1.603,5.771c0,1.425,0.891,2.031,2.672,1.817
		c2.785-0.382,5.392-1.592,7.481-3.473c2.596-2.157,4.928-4.615,6.947-7.321c2.198-2.885,4.164-5.941,5.878-9.137
		c1.541-2.75,2.941-5.577,4.195-8.469c0.788-2.082,2.184-3.879,4.008-5.156c1.237-0.888,2.82-1.145,4.275-0.695
		c1.395,0.55,2.406,1.784,2.672,3.26c0.367,2.353-0.007,4.762-1.069,6.893c-1.381,3.615-3.024,7.124-4.916,10.5
		c-2.271,4.227-4.956,8.219-8.015,11.916c-3.121,3.754-6.776,7.031-10.847,9.725c-3.95,2.646-8.605,4.042-13.359,4.008
		c-3.495,0.251-6.95-0.881-9.618-3.153c-2.286-2.261-3.864-5.139-4.542-8.282c-0.817-3.772-1.016-7.652-0.588-11.488
		c0.413-4.408,1.127-8.782,2.137-13.092c1.022-4.337,2.27-8.618,3.74-12.824c1.425-4.15,2.716-7.712,3.874-10.687v-0.187
		c0.879-2.263,0.579-4.815-0.802-6.813c-1.391-1.748-2.909-3.391-4.542-4.916c-0.926,2.316-2.084,5.103-3.473,8.363
		c-1.389,3.26-2.841,6.572-4.355,9.939c-1.372,3.384-2.707,6.59-4.008,9.618l-3.206,7.347c-0.74,2.059-2.215,3.772-4.141,4.809
		c-1.322,0.694-2.9,0.694-4.221,0c-1.274-0.788-2.171-2.062-2.485-3.527c-0.409-1.938-0.024-3.959,1.069-5.611
		c0.784-1.354,1.763-3.295,2.939-5.824l3.687-8.176c1.318-2.921,2.654-5.967,4.008-9.137l3.687-8.71
		c1.14-2.636,2.084-4.907,2.832-6.813c0.748-1.906,1.176-3.037,1.282-3.393c-0.128-3.24,0.455-6.468,1.71-9.458
		c0.596-2.217,2.008-4.126,3.954-5.343c1.409-0.884,3.121-1.145,4.729-0.721c1.446,0.47,2.592,1.585,3.099,3.019
		c0.591,1.93,0.359,4.018-0.641,5.771c-1.091,1.788-1.681,3.837-1.71,5.931c0.156,1.624,0.885,3.14,2.057,4.275
		c1.612,1.624,3.405,3.058,5.343,4.275c2.28,1.478,5.085,3.42,8.416,5.824c1.507,0.723,2.923,1.619,4.221,2.672
		c2.572,2.001,4.367,4.835,5.076,8.015c0.389,1.534,0.389,3.141,0,4.676L312.941,275.256z M407.654,288.855
		c1.079-1.819,2.748-3.214,4.729-3.954c1.53-0.542,3.199-0.542,4.729,0c1.365,0.507,2.413,1.625,2.832,3.019
		c0.45,1.919,0.04,3.939-1.122,5.53c-1.626,2.484-3.536,4.771-5.691,6.813c-2.559,2.464-5.456,4.551-8.603,6.198
		c-3.483,1.835-7.22,3.14-11.088,3.874c-4.354,0.805-8.818,0.805-13.172,0c-4.978,5.175-10.62,9.667-16.779,13.359
		c-5.407,3.381-11.632,5.228-18.008,5.343c-5.486,0.28-10.925-1.138-15.576-4.061c-3.868-2.718-6.791-6.575-8.363-11.034
		c-1.811-5.252-2.6-10.802-2.324-16.351c0.229-6.74,1.061-13.446,2.485-20.038c1.582-7.492,3.562-14.894,5.931-22.175
		c7.801-24.046,9.885-32.061,21.374-55.225c1.781-3.669,2.983-6.136,3.607-7.401c0.591-1.795,2.14-3.106,4.008-3.393
		c2.114-0.265,4.261,0.029,6.225,0.855c2.458,0.982,4.776,2.285,6.893,3.874c2.323,1.69,4.407,3.685,6.198,5.931
		c1.673,2.084,3.024,4.408,4.008,6.893c0.903,2.09,1.09,4.419,0.534,6.626c-1.15,3.095-2.609,6.067-4.355,8.87
		c-11.809,19.958-13.091,17.553-23.912,37.271c-4.025,7.356-7.588,14.481-10.687,21.374c-2.775,5.868-5.011,11.975-6.679,18.248
		c-1.309,4.127-1.466,8.534-0.454,12.744c1.033,3.206,3.794,4.809,8.282,4.809c3.561-0.216,6.906-1.783,9.351-4.382
		c3.493-3.325,6.587-7.046,9.217-11.088c-2.935-2.678-5.102-6.091-6.279-9.885c-1.219-3.885-1.717-7.959-1.469-12.023
		c0.547-8.542,3.533-16.748,8.603-23.645c2.469-3.344,5.497-6.237,8.95-8.55c3.289-2.266,7.072-3.714,11.034-4.221l1.282-0.267
		c0.489-0.034,0.98-0.034,1.469,0c1.647,0.022,3.29,0.165,4.916,0.427c1.956,0.295,3.868,0.833,5.691,1.603
		c1.975,0.863,3.784,2.066,5.343,3.553c1.782,1.68,3.091,3.799,3.794,6.145c0.85,2.994,1.167,6.114,0.935,9.217
		c-0.363,4.462-1.38,8.846-3.019,13.011c-1.478,3.894-3.265,7.665-5.343,11.275c-2.378,4.23-5.057,8.283-8.015,12.13
		c7.663-0.557,14.605-4.722,18.702-11.221L407.654,288.855z M376.448,256.099h-0.134c-1.372,0-2.921,1.211-4.649,3.634
		c-1.869,2.733-3.336,5.72-4.355,8.87c-1.227,3.642-1.946,7.436-2.137,11.275c-0.308,3.702,0.462,7.413,2.218,10.687
		c2.066-4.132,3.901-8.229,5.504-12.29c1.461-3.602,2.71-7.286,3.74-11.034c0.737-2.615,1.185-5.303,1.336-8.015
		c0.053-2.066-0.436-3.099-1.469-3.099L376.448,256.099z M455.531,292.435c-4.712,1.779-9.667,2.833-14.695,3.126
		c-3.577,0.157-7.16-0.075-10.687-0.695c-0.986,2.901-1.736,5.876-2.244,8.897c-0.493,2.442-0.493,4.958,0,7.401
		c0.414,1.958,1.478,3.719,3.019,4.996c1.841,1.312,4.076,1.953,6.332,1.817c5.615,0.089,11.185-1.004,16.351-3.206
		c4.555-1.952,8.789-4.582,12.557-7.801c5.921-5.132,10.622-11.522,13.759-18.702c0.788-2.082,2.184-3.879,4.008-5.156
		c1.237-0.888,2.82-1.145,4.275-0.695c1.395,0.55,2.406,1.784,2.672,3.26c0.37,2.353-0.003,4.763-1.069,6.893
		c-1.494,3.72-3.431,7.245-5.771,10.5c-3.037,4.405-6.629,8.401-10.687,11.889c-4.644,3.952-9.848,7.193-15.443,9.618
		c-6.267,2.73-13.043,4.096-19.878,4.008c-14.306,1.107-27.172-8.68-29.923-22.763c-1.497-6.969-1.387-14.187,0.321-21.107
		c1.744-7.586,4.957-14.757,9.458-21.107c4.696-6.653,10.775-12.213,17.82-16.298c7.738-4.409,16.531-6.626,25.435-6.412
		c5.009-0.308,10.004,0.783,14.427,3.153c3.109,1.819,5.425,4.735,6.492,8.176c1.006,3.637,1.006,7.478,0,11.114
		c-1.073,4.22-2.882,8.217-5.343,11.809c-2.633,3.855-5.779,7.334-9.351,10.34c-3.504,3.024-7.534,5.379-11.889,6.947
		L455.531,292.435z M451.737,283.351c4.284-1.665,8.125-4.298,11.221-7.695c2.82-2.969,5.058-6.439,6.599-10.233
		c1.261-2.851,1.652-6.012,1.122-9.084c-0.423-2.449-2.688-4.139-5.156-3.847c-2.757,0.158-5.402,1.145-7.588,2.832
		c-3.066,2.164-5.872,4.674-8.363,7.481c-2.934,3.292-5.613,6.802-8.015,10.5c-2.555,3.864-4.875,7.879-6.947,12.023
		c2.585,0.355,5.202,0.418,7.801,0.187c3.187-0.289,6.317-1.027,9.298-2.191L451.737,283.351z M535.256,275.256
		c-0.807,2.598-1.881,5.105-3.206,7.481c-1.532,2.921-3.224,5.931-5.076,9.03l-5.343,9.217c-1.565,2.649-2.992,5.378-4.275,8.176
		c-0.916,1.797-1.461,3.759-1.603,5.771c0,1.425,0.891,2.031,2.672,1.817c2.766-0.392,5.353-1.602,7.427-3.473
		c2.596-2.157,4.928-4.615,6.947-7.321c2.198-2.885,4.164-5.941,5.878-9.137c1.527-2.795,2.909-5.666,4.141-8.603
		c0.788-2.082,2.184-3.879,4.008-5.156c1.233-0.898,2.816-1.165,4.275-0.721c1.395,0.55,2.406,1.784,2.672,3.26
		c0.367,2.353-0.007,4.762-1.069,6.893c-1.401,3.663-3.071,7.217-4.996,10.634c-2.271,4.227-4.956,8.219-8.015,11.916
		c-3.121,3.754-6.776,7.031-10.847,9.725c-3.95,2.646-8.605,4.042-13.359,4.008c-3.496,0.251-6.95-0.881-9.618-3.153
		c-2.286-2.261-3.864-5.139-4.542-8.282c-0.817-3.772-1.016-7.652-0.588-11.488c0.413-4.408,1.127-8.782,2.137-13.092
		c1.022-4.337,2.27-8.618,3.74-12.824c1.425-4.15,2.716-7.712,3.874-10.687v-0.187c0.879-2.263,0.579-4.815-0.802-6.813
		c-1.391-1.748-2.909-3.391-4.542-4.916c-0.926,2.316-2.084,5.103-3.473,8.363c-1.389,3.26-2.761,6.581-4.114,9.966
		c-1.372,3.384-2.707,6.59-4.008,9.618l-3.206,7.347c-0.74,2.059-2.215,3.772-4.141,4.809c-1.322,0.694-2.9,0.694-4.221,0
		c-1.274-0.788-2.171-2.062-2.485-3.527c-0.406-1.938-0.021-3.958,1.069-5.611c0.784-1.354,1.763-3.295,2.939-5.824l3.687-8.176
		c1.318-2.921,2.654-5.967,4.008-9.137l3.821-8.71c1.14-2.636,2.084-4.907,2.832-6.813c0.748-1.906,1.176-3.037,1.282-3.393
		c-0.128-3.24,0.455-6.468,1.71-9.458c0.596-2.217,2.008-4.126,3.954-5.343c1.409-0.884,3.121-1.145,4.729-0.721
		c1.457,0.463,2.613,1.579,3.126,3.019c0.599,1.926,0.377,4.014-0.615,5.771c-1.091,1.788-1.681,3.837-1.71,5.931
		c0.156,1.624,0.885,3.14,2.057,4.275c1.612,1.624,3.405,3.058,5.343,4.275c2.316,1.478,5.13,3.42,8.443,5.824
		c1.507,0.723,2.924,1.619,4.221,2.672c2.572,2.001,4.367,4.835,5.076,8.015c0.337,1.548,0.282,3.155-0.16,4.676L535.256,275.256z
		 M239.121,366.255c6.572,0,9.939,3.473,9.939,9.565v1.229h-6.412v-1.603c0-2.672-1.202-3.74-3.34-3.74
		c-2.137,0-3.366,1.069-3.366,3.74c0,7.855,13.198,9.351,13.198,20.198c0,6.092-3.473,9.565-10.046,9.565
		s-10.046-3.473-10.046-9.565v-2.351h6.359v2.672c0,2.672,1.336,3.687,3.473,3.687s3.527-0.989,3.527-3.687
		c0-7.828-13.172-9.298-13.172-20.172C229.182,369.728,232.441,366.255,239.121,366.255L239.121,366.255z M266.907,404.755h-6.759
		v-38.046h6.733v16.298h7.641v-16.298h6.866v38.072h-6.866v-16.298h-7.614V404.755z M292.929,375.793
		c0-6.065,3.607-9.538,10.233-9.538s10.233,3.473,10.233,9.565v19.824c0,6.092-3.607,9.565-10.233,9.565s-10.233-3.473-10.233-9.565
		V375.793z M299.662,395.992c0,2.672,1.336,3.74,3.473,3.74s3.527-1.069,3.527-3.74v-20.572c0-2.672-1.336-3.74-3.473-3.74
		c-2.137,0-3.527,1.069-3.527,3.74V395.992z M344.921,376.06v4.969c0,6.092-3.313,9.405-10.046,9.405h-3.206v14.294h-6.679v-38.019
		h9.885C341.608,366.709,344.921,370.022,344.921,376.06L344.921,376.06z M331.563,372.106v12.878h3.206
		c2.137,0,3.286-0.882,3.286-3.58v-5.717c0-2.672-1.176-3.58-3.313-3.58H331.563z M287.479,430.831
		c-2.532-2.916-6.305-4.445-10.153-4.114c-6.252,1.176-14.641,10.42-14.641,10.42s-5.13,5.664-9.511,4.221s-2.672-8.015-2.672-8.015
		c-3.39,0.86-5.44,4.306-4.579,7.695c0.105,0.414,0.252,0.817,0.438,1.202c2.832,6.813,14.695,6.305,18.969,5.557
		c8.296-1.181,16.019-4.916,22.095-10.687c6.076,5.771,13.799,9.506,22.095,10.687c4.328,0.748,16.03,1.256,18.969-5.557
		c1.449-3.183,0.043-6.938-3.14-8.386c-0.315-0.143-0.64-0.26-0.974-0.35c0,0,1.763,6.519-2.672,8.015
		c-4.435,1.496-9.511-4.195-9.511-4.195s-8.389-9.271-14.641-10.42C293.763,426.553,290.03,428.008,287.479,430.831z"/>
	<g>
		<path d="M171.576,444.494c-1.427-1.549-2.831-3.135-4.209-4.756c-1.641,1.397-3.281,2.794-4.922,4.191
			c0.964,1.134,1.939,2.25,2.926,3.35c-0.921,0.829-1.842,1.658-2.763,2.487c-1.009-1.125-2.007-2.267-2.993-3.427
			c-2.72,2.316-5.44,4.632-8.16,6.948c-1.133-1.334-2.252-2.689-3.355-4.066c6.404-5.131,12.808-10.261,19.212-15.392
			c2.258,2.818,4.591,5.532,6.995,8.14C173.396,442.812,172.486,443.653,171.576,444.494z"/>
		<path d="M180.745,448.551c1.059,1.02,2.13,2.021,3.212,3.003c-4.754,5.261-9.509,10.522-14.263,15.784
			c1.633,1.483,3.289,2.929,4.965,4.339c-0.717,0.857-1.433,1.713-2.15,2.57c-3-2.521-5.934-5.159-8.795-7.913
			C169.391,460.406,175.068,454.479,180.745,448.551z"/>
		<path d="M179.951,480.164c6.293-5.54,12.407-11.246,18.335-17.11c1.428,1.009,2.87,1.99,4.324,2.943
			c-3.27,7.673-6.333,15.457-9.183,23.342c-1.365-0.839-2.721-1.697-4.067-2.577c0.658-1.571,1.325-3.139,1.998-4.702
			c-1.292-0.854-2.574-1.726-3.847-2.619c-1.205,1.202-2.416,2.398-3.634,3.589C182.558,482.095,181.249,481.14,179.951,480.164z
			 M196.147,471.314c0.084-0.199,0.169-0.398,0.254-0.598c-0.069-0.047-0.137-0.093-0.206-0.14
			c-0.154,0.152-0.308,0.304-0.462,0.456c-1.815,1.899-3.647,3.784-5.495,5.656c0.887,0.617,1.78,1.224,2.676,1.822
			C193.974,476.101,195.051,473.702,196.147,471.314z"/>
		<path d="M207.895,497.307c-1.139-0.558-2.272-1.13-3.401-1.714c2.448-7.978,5.089-15.879,7.921-23.693
			c1.143,0.63,2.293,1.244,3.449,1.843c-1.466,4.046-2.888,8.111-4.267,12.194c-0.095,0.252-0.191,0.504-0.286,0.756
			c0.101,0.051,0.202,0.102,0.304,0.152c0.158-0.221,0.316-0.441,0.474-0.662c2.488-3.527,4.932-7.081,7.332-10.66
			c0.911,0.441,1.826,0.873,2.744,1.295c-1.244,4.125-2.441,8.267-3.59,12.426c-0.071,0.262-0.141,0.524-0.212,0.786
			c0.103,0.046,0.206,0.091,0.309,0.137c0.134-0.234,0.269-0.467,0.403-0.701c2.279-3.659,4.515-7.339,6.71-11.041
			c1.189,0.509,2.382,1.001,3.581,1.478c-4.233,7.152-8.653,14.211-13.258,21.171c-1.16-0.496-2.317-1.006-3.468-1.528
			c0.924-3.85,1.894-7.683,2.912-11.5c0.128-0.471,0.257-0.941,0.386-1.411c-0.05-0.024-0.101-0.048-0.151-0.071
			c-0.281,0.398-0.563,0.797-0.846,1.194C212.635,490.967,210.286,494.15,207.895,497.307z"/>
		<path d="M237.785,482.966c1.318,0.436,2.641,0.853,3.968,1.251c-2.052,6.788-4.104,13.577-6.156,20.365
			c2.004,0.602,4.016,1.166,6.036,1.694c-0.284,1.08-0.568,2.16-0.853,3.24c-3.615-0.944-7.206-2.005-10.765-3.181
			C232.604,498.545,235.194,490.756,237.785,482.966z"/>
		<path d="M255.419,487.638c3.094,0.624,6.204,1.151,9.325,1.581c-0.171,1.228-0.342,2.455-0.512,3.683
			c-1.799-0.248-3.595-0.527-5.386-0.838c-0.372,2.123-0.743,4.245-1.115,6.368c1.342,0.233,2.687,0.449,4.034,0.648
			c-0.194,1.303-0.389,2.606-0.583,3.909c-1.38-0.204-2.757-0.425-4.132-0.664c-0.389,2.222-0.778,4.443-1.167,6.665
			c1.989,0.345,3.984,0.655,5.982,0.931c-0.171,1.228-0.342,2.455-0.512,3.683c-3.628-0.5-7.243-1.112-10.839-1.837
			C252.148,503.724,253.783,495.681,255.419,487.638z"/>
		<path d="M280.482,497.166c0.026-0.803,0.015-1.708-0.235-2.42c-0.252-0.679-0.662-1.162-1.324-1.191
			c-1.089-0.015-1.492,0.934-1.569,2.372c-0.044,0.837,0.346,1.73,0.946,2.696c0.6,0.966,1.413,1.971,2.241,3.035
			c0.985,1.271,1.996,2.564,2.776,3.814c0.779,1.25,1.327,2.526,1.319,3.865c-0.01,1.641-0.362,3.182-1.39,4.308
			c-1.026,1.123-2.692,1.836-5.317,1.724c-3.07-0.137-4.745-1.142-5.604-2.547c-0.861-1.41-0.922-3.199-0.77-5.034
			c1.513,0.013,3.024,0.006,4.533-0.022c-0.058,1.036-0.076,2.076,0.228,2.864c0.259,0.818,0.755,1.383,1.758,1.427
			c1.398,0.059,1.959-1.067,2.008-2.639c0.026-0.803-0.458-1.757-1.095-2.754c-0.361-0.483-0.719-1.002-1.114-1.523
			c-0.833-1.044-1.725-2.233-2.63-3.532c-0.905-1.299-1.537-2.623-1.877-3.959c-0.191-0.653-0.256-1.331-0.203-1.998
			c0.106-1.335,0.576-2.741,1.541-3.78c0.965-1.007,2.342-1.685,4.285-1.634c2.475,0.072,3.901,0.991,4.7,2.31
			c0.796,1.349,1.027,2.99,1.019,4.363C283.303,497.015,281.894,497.1,280.482,497.166z"/>
		<path d="M301.309,496.48c-0.079-0.8-0.21-1.696-0.551-2.369c-0.339-0.64-0.809-1.066-1.469-1.008
			c-1.084,0.127-1.358,1.12-1.245,2.556c0.066,0.835,0.57,1.67,1.293,2.55c0.722,0.88,1.66,1.77,2.622,2.717
			c1.144,1.132,2.317,2.282,3.256,3.42c0.937,1.138,1.648,2.331,1.817,3.66c0.206,1.628,0.059,3.202-0.813,4.452
			c-0.871,1.247-2.431,2.171-5.049,2.402c-3.063,0.264-4.856-0.515-5.892-1.797c-1.04-1.286-1.336-3.051-1.426-4.89
			c1.501-0.184,2.998-0.388,4.491-0.611c0.078,1.035,0.198,2.067,0.603,2.809c0.364,0.778,0.93,1.273,1.932,1.186
			c1.394-0.123,1.802-1.312,1.644-2.877c-0.08-0.8-0.685-1.683-1.447-2.588c-0.422-0.432-0.844-0.9-1.305-1.365
			c-0.964-0.927-2.005-1.989-3.073-3.159c-1.067-1.17-1.868-2.4-2.38-3.681c-0.275-0.623-0.428-1.286-0.464-1.955
			c-0.07-1.338,0.211-2.792,1.03-3.948c0.823-1.123,2.101-1.975,4.035-2.177c2.464-0.251,4,0.475,4.967,1.679
			c0.967,1.234,1.412,2.83,1.584,4.193C304.088,495.963,302.701,496.231,301.309,496.48z"/>
		<path d="M326.171,485.185c1.334-0.367,2.664-0.753,3.99-1.157c2.081,6.779,4.163,13.559,6.244,20.338
			c2.002-0.611,3.994-1.258,5.977-1.943c0.366,1.055,0.733,2.11,1.099,3.166c-3.547,1.225-7.125,2.333-10.73,3.326
			C330.558,501.004,328.364,493.095,326.171,485.185z"/>
		<path d="M362.187,492.257c0.41,0.919,0.577,1.847,0.478,2.756c-0.064,0.779-0.348,1.628-0.944,2.471
			c-0.581,0.873-1.56,1.67-3.043,2.342c-1.484,0.672-2.767,0.899-3.805,0.759c-1.024-0.109-1.806-0.474-2.433-0.94
			c-0.747-0.525-1.335-1.262-1.757-2.176c-1.837-4.474-3.673-8.948-5.51-13.423c-0.332-0.915-0.455-1.842-0.351-2.719
			c0.07-0.755,0.28-1.568,0.798-2.335c0.519-0.769,1.378-1.506,2.65-2.082c1.27-0.576,2.361-0.721,3.283-0.605
			c0.922,0.115,1.712,0.474,2.328,0.917c0.732,0.499,1.351,1.201,1.822,2.052C357.864,483.603,360.025,487.93,362.187,492.257z
			 M351.786,481.161c-0.283-0.608-0.626-0.965-1.156-1.164c-0.251-0.07-0.581-0.028-0.906,0.119
			c-0.687,0.311-0.822,0.883-0.792,1.346c-0.001,0.293,0.085,0.585,0.221,0.892c1.959,4.422,3.919,8.844,5.878,13.266
			c0.285,0.643,0.676,0.984,1.231,1.14c0.271,0.062,0.596,0.027,0.959-0.138c0.767-0.348,0.961-0.881,0.909-1.411
			c0.021-0.268-0.066-0.561-0.222-0.895C355.868,489.931,353.827,485.546,351.786,481.161z"/>
		<path d="M382.578,480.232c0.532,0.854,0.822,1.753,0.843,2.673c0.039,0.784-0.134,1.672-0.62,2.599
			c-0.467,0.954-1.343,1.891-2.739,2.776c-1.398,0.885-2.652,1.297-3.709,1.309c-1.04,0.04-1.871-0.209-2.56-0.582
			c-0.818-0.414-1.504-1.062-2.047-1.909c-2.431-4.181-4.863-8.363-7.294-12.544c-0.454-0.861-0.699-1.765-0.712-2.652
			c-0.03-0.76,0.073-1.599,0.489-2.437c0.418-0.84,1.18-1.697,2.377-2.456c1.197-0.759,2.269-1.063,3.209-1.084
			c0.939-0.021,1.778,0.219,2.454,0.569c0.799,0.388,1.513,0.995,2.097,1.773C377.104,472.257,379.841,476.245,382.578,480.232z
			 M370.692,470.722c-0.364-0.563-0.755-0.868-1.312-0.989c-0.261-0.032-0.586,0.057-0.892,0.251
			c-0.647,0.41-0.707,0.998-0.615,1.454c0.038,0.292,0.163,0.57,0.339,0.855c2.548,4.112,5.095,8.223,7.642,12.335
			c0.37,0.598,0.808,0.88,1.383,0.955c0.28,0.022,0.6-0.06,0.942-0.277c0.722-0.458,0.846-1.017,0.723-1.537
			c-0.014-0.27-0.141-0.548-0.34-0.857C375.94,478.849,373.316,474.786,370.692,470.722z"/>
		<path d="M382.973,455.36c1.842,2.201,3.684,4.403,5.525,6.604c0.043-0.036,0.087-0.073,0.13-0.11
			c-0.032-0.148-0.064-0.296-0.096-0.445c-0.787-2.917-1.631-5.806-2.533-8.664c1.06-0.94,2.11-1.898,3.15-2.873
			c0.864,2.895,1.667,5.823,2.406,8.783c4.84,3.063,9.791,5.995,14.848,8.791c-1.205,1.139-2.423,2.258-3.653,3.356
			c-3.252-1.887-6.457-3.832-9.614-5.833c-0.142-0.099-0.284-0.197-0.426-0.296c-0.033,0.029-0.067,0.057-0.1,0.086
			c0.042,0.185,0.083,0.369,0.124,0.554c0.154,0.749,0.304,1.5,0.45,2.253c1.863,2.227,3.727,4.454,5.59,6.681
			c-1.29,1.085-2.593,2.148-3.908,3.19c-5.085-6.444-10.171-12.889-15.257-19.333C380.742,457.208,381.863,456.293,382.973,455.36z"
			/>
		<path d="M406.167,441.538c-0.612-0.521-1.33-1.073-2.059-1.3c-0.705-0.206-1.364-0.156-1.838,0.39
			c-0.756,0.919-0.286,1.848,0.789,2.806c0.626,0.557,1.593,0.781,2.761,0.869c1.167,0.089,2.51,0.021,3.912-0.029
			c1.67-0.054,3.376-0.12,4.891-0.018c1.514,0.104,2.89,0.421,3.935,1.258c1.281,1.026,2.249,2.287,2.428,3.871
			c0.178,1.58-0.403,3.457-2.283,5.623c-2.203,2.527-4.131,3.309-5.818,3.158c-1.692-0.152-3.137-1.212-4.472-2.48
			c1.039-1.26,2.062-2.537,3.07-3.832c0.773,0.693,1.576,1.352,2.402,1.584c0.818,0.289,1.599,0.219,2.319-0.609
			c1.001-1.153,0.501-2.332-0.699-3.349c-0.613-0.521-1.691-0.699-2.908-0.774c-0.626,0.008-1.277-0.01-1.955,0.003
			c-1.388,0.06-2.929,0.079-4.565,0.037c-1.635-0.043-3.104-0.333-4.382-0.879c-0.642-0.246-1.218-0.612-1.705-1.071
			c-0.975-0.919-1.758-2.186-1.917-3.643c-0.133-1.437,0.273-3.02,1.64-4.642c1.746-2.063,3.444-2.723,5.026-2.593
			c1.603,0.151,3.049,0.967,4.12,1.826C407.979,439.026,407.081,440.29,406.167,441.538z"/>
	</g>
	<g>
		<path d="M214.358,115.754c-4.287-6.997-8.575-13.993-12.862-20.99c1.208-0.741,2.424-1.464,3.647-2.17
			c2.472-1.427,4.628-2.124,6.394-1.879c1.769,0.246,3.15,1.352,4.254,3.533c0.531,1.045,0.811,1.88,0.768,2.804
			c-0.041,0.925-0.362,1.842-0.91,3.006c1.218-0.078,2.379,0.38,3.667,1.491c0.637,0.54,1.232,1.366,1.789,2.472
			c0.83,1.646,1.217,3.286,0.953,4.854c-0.266,1.572-1.306,3.055-3.36,4.327C217.24,114.024,215.793,114.875,214.358,115.754z
			 M210.688,101.113c0.326-0.187,1.103-0.591,1.566-1.307c0.461-0.716,0.594-1.702-0.221-3.204c-0.814-1.501-1.73-1.919-2.608-1.891
			c-0.879,0.028-1.66,0.51-1.999,0.704C208.514,97.314,209.601,99.214,210.688,101.113z M216.097,110.558
			c0.303-0.174,1.042-0.516,1.441-1.236c0.398-0.719,0.414-1.833-0.544-3.599c-0.958-1.766-1.92-2.35-2.772-2.374
			c-0.853-0.025-1.568,0.458-1.886,0.64C213.59,106.179,214.843,108.369,216.097,110.558z"/>
		<path d="M221.698,84.257c1.452-0.63,2.911-1.238,4.377-1.823c2.629,6.584,5.258,13.168,7.887,19.752
			c1.686-0.674,3.383-1.313,5.088-1.919c0.374,1.052,0.747,2.104,1.121,3.156c-2.922,1.038-5.817,2.178-8.679,3.42
			C228.227,99.314,224.962,91.785,221.698,84.257z"/>
		<path d="M246.284,101.411c-1.074-8.249-1.91-16.55-2.504-24.89c1.845-0.5,3.698-0.967,5.556-1.4
			c3.428,7.626,6.623,15.332,9.583,23.105c-1.26,0.255-2.517,0.527-3.771,0.818c-0.617-1.576-1.243-3.15-1.877-4.72
			c-1.286,0.305-2.569,0.628-3.848,0.97c0.186,1.684,0.381,3.366,0.585,5.046C248.762,100.679,247.521,101.036,246.284,101.411z
			 M248.75,83.498c-0.092-0.196-0.183-0.392-0.275-0.587c-0.08,0.02-0.161,0.04-0.241,0.061c0.012,0.216,0.024,0.432,0.036,0.648
			c0.224,2.615,0.469,5.227,0.735,7.835c0.935-0.246,1.873-0.482,2.812-0.709C250.815,88.323,249.793,85.907,248.75,83.498z"/>
		<path d="M275.767,87.43c0.081,1.125,0.161,2.249,0.241,3.374c0.034,1.005-0.127,1.923-0.477,2.722
			c-0.283,0.693-0.749,1.368-1.437,1.932c-0.685,0.598-1.637,0.989-2.944,1.133c-1.307,0.144-2.358-0.026-3.158-0.46
			c-0.795-0.401-1.361-0.963-1.789-1.578c-0.516-0.704-0.874-1.564-1.06-2.553c-0.714-4.781-1.427-9.563-2.141-14.344
			c-0.102-0.967,0.014-1.898,0.368-2.728c0.284-0.718,0.741-1.459,1.527-2.071c0.787-0.611,1.948-1.097,3.497-1.268
			c1.547-0.17,2.744,0.056,3.643,0.481c0.901,0.425,1.551,1.046,1.983,1.685c0.525,0.733,0.841,1.617,0.952,2.583
			c0.08,1.125,0.161,2.249,0.241,3.374c-1.373,0.098-2.745,0.215-4.116,0.35c-0.111-1.122-0.221-2.244-0.332-3.367
			c-0.066-0.667-0.32-1.113-0.823-1.465c-0.227-0.145-0.617-0.206-1.079-0.155c-0.8,0.088-1.124,0.6-1.281,1.056
			c-0.094,0.281-0.1,0.585-0.102,0.923c0.576,4.8,1.151,9.6,1.727,14.399c0.122,0.694,0.402,1.132,0.818,1.456
			c0.206,0.145,0.478,0.215,0.813,0.178c0.856-0.093,1.151-0.525,1.289-1.044c0.089-0.244,0.098-0.548,0.062-0.915
			c-0.111-1.122-0.221-2.244-0.332-3.366C273.16,87.634,274.463,87.523,275.767,87.43z"/>
		<path d="M288.528,70.899c-0.042,2.869-0.083,5.738-0.125,8.607c0.055,0.001,0.109,0.002,0.164,0.002
			c0.07-0.133,0.14-0.266,0.211-0.398c1.274-2.714,2.613-5.412,4.017-8.093c1.508,0.061,3.015,0.144,4.521,0.248
			c-1.605,2.598-3.141,5.219-4.605,7.861c1.294,5.564,2.424,11.144,3.389,16.732c-1.277-0.092-2.556-0.167-3.834-0.223
			c-0.755-3.609-1.582-7.213-2.48-10.809c-0.035-0.168-0.071-0.337-0.107-0.505c-0.04-0.001-0.079-0.002-0.119-0.003
			c-0.083,0.166-0.165,0.331-0.247,0.497c-0.343,0.663-0.681,1.327-1.015,1.992c-0.042,2.902-0.084,5.805-0.126,8.707
			c-1.316-0.019-2.632-0.019-3.948,0c-0.117-8.205-0.234-16.41-0.35-24.615C285.424,70.876,286.976,70.876,288.528,70.899z"/>
		<path d="M329.242,80.563c-2.03-0.574-4.07-1.106-6.117-1.597c-0.503,2.095-1.005,4.19-1.508,6.286
			c1.318,0.316,2.632,0.65,3.942,1.001c-0.321,1.197-0.643,2.394-0.964,3.591c-1.279-0.343-2.561-0.669-3.846-0.977
			c-0.834,3.474-1.667,6.948-2.501,10.422c-1.288-0.309-2.579-0.599-3.874-0.87c1.683-8.031,3.367-16.063,5.05-24.094
			c3.632,0.761,7.243,1.647,10.827,2.66C329.916,78.177,329.579,79.37,329.242,80.563z"/>
		<path d="M342.133,101.882c-0.43,0.909-0.998,1.649-1.68,2.198c-0.574,0.485-1.306,0.868-2.187,1.051
			c-0.895,0.214-1.934,0.121-3.18-0.355c-1.246-0.475-2.115-1.11-2.637-1.865c-0.533-0.723-0.785-1.482-0.887-2.226
			c-0.142-0.863-0.07-1.793,0.216-2.757c1.547-4.58,3.093-9.16,4.64-13.741c0.351-0.906,0.882-1.682,1.579-2.258
			c0.583-0.508,1.334-0.958,2.323-1.139c0.988-0.181,2.258-0.079,3.734,0.484c1.476,0.564,2.454,1.318,3.074,2.113
			c0.619,0.795,0.924,1.65,1.023,2.418c0.139,0.895,0.021,1.828-0.322,2.738C345.929,92.99,344.031,97.436,342.133,101.882z
			 M343.579,86.802c0.245-0.624,0.258-1.122,0.004-1.652c-0.14-0.234-0.424-0.452-0.785-0.589c-0.762-0.29-1.288,0.016-1.599,0.364
			c-0.214,0.207-0.358,0.475-0.474,0.789c-1.679,4.533-3.359,9.066-5.038,13.6c-0.244,0.66-0.227,1.166-0.001,1.645
			c0.12,0.224,0.334,0.411,0.653,0.533c0.674,0.258,1.138,0.009,1.465-0.403c0.193-0.177,0.339-0.443,0.473-0.786
			C340.044,95.802,341.812,91.302,343.579,86.802z"/>
		<path d="M350.183,111.309c-1.176-0.619-2.36-1.22-3.549-1.803c3.231-3.216,6.579-6.347,10.042-9.388
			c0.408-4.195,0.697-8.424,0.865-12.682c1.402,0.688,2.797,1.398,4.184,2.129c-0.196,2.244-0.425,4.479-0.685,6.704
			c-0.011,0.109-0.021,0.217-0.032,0.326c0.05,0.027,0.1,0.055,0.15,0.082c0.086-0.068,0.171-0.135,0.257-0.203
			c1.739-1.412,3.505-2.802,5.298-4.168c1.366,0.782,2.724,1.587,4.073,2.412c-3.523,2.412-6.949,4.916-10.277,7.506
			c-0.705,4.557-1.542,9.069-2.509,13.53c-1.144-0.701-2.295-1.383-3.453-2.048c0.538-2.51,1.038-5.034,1.499-7.572
			c0.025-0.101,0.05-0.202,0.076-0.302c-0.047-0.026-0.093-0.051-0.14-0.077c-0.072,0.075-0.143,0.151-0.215,0.226
			C353.871,107.731,352.01,109.507,350.183,111.309z"/>
	</g>
	<path d="M215.77,164.855c2.273-5.698,6.881-8.9,12.017-11.511c5.565-2.829,11.356-5.209,17.025-7.836
		c1.52-0.704,2.925-1.652,4.432-2.388c1.098-0.537,2.269-1.269,3.421-1.293c4.653-0.097,9.108-1.36,13.662-2.011
		c8.997-1.287,18.027-1.707,27.073-0.445c2.018,0.282,4.012,0.818,6.037,0.96c4.212,0.295,8.323-0.516,12.331-1.716
		c5.816-1.742,11.583-3.646,17.383-5.443c1.131-0.35,2.315-0.527,3.488-0.787c0.076-0.822,0.103-1.62,0.23-2.402
		c0.42-2.584,1.305-3.034,3.574-1.862c0.082-0.021,0.19-0.018,0.242-0.07c1.972-1.984,3.092-1.735,4.058,0.907
		c0.015,0.042,0.042,0.082,0.045,0.125c0.222,3.354,2.269,5.838,3.965,8.516c0.719,1.136,1.22,2.465,1.562,3.773
		c0.869,3.326,3.203,5.416,5.821,7.311c0,0.178,0,0.355,0,0.533c-0.869,1.521-3.294,1.422-5.23,0.49
		c-1.293-0.622-2.507-1.41-3.873-2.024c1.51,1.702,3.021,3.405,4.531,5.107c-0.028,0.144-0.056,0.289-0.084,0.433
		c-0.764-0.059-1.632,0.093-2.271-0.221c-1.295-0.637-2.61-1.372-3.657-2.347c-1.769-1.647-3.674-1.97-5.742-0.96
		c-4.763,2.326-8.337,5.67-9.207,11.233c-0.197,1.259-0.074,2.214,1.161,2.919c2.649,1.512,5.263,3.086,7.854,4.697
		c1.467,0.912,2.867,1.934,4.281,2.929c2.609,1.836,5.123,3.795,8.45,4.288c1.466,0.217,1.711,1.291,0.778,2.447
		c-1.354,1.678-2.92,1.971-4.82,0.891c-0.307-0.175-0.623-0.354-0.887-0.585c-4.34-3.804-9.601-5.588-15.08-6.902
		c-2.552-0.612-5.149-1.214-7.164-2.997c-0.765-0.677-1.401-1.757-1.613-2.755c-0.639-3.018-2.155-4.037-5.49-3.135
		c0.389,1.648,0.774,3.311,1.175,4.969c0.383,1.584,0.997,3.147,1.122,4.75c0.174,2.23-0.982,3.291-3.169,3.653
		c-1.378,0.228-2.752,0.596-4.065,1.073c-1.983,0.721-3.913,0.43-5.869,0.076c0.07-2.267,1.076-3.333,3.218-3.457
		c0.974-0.056,1.964,0.031,2.925-0.105c1.679-0.238,2.213-1.191,1.515-2.752c-0.43-0.963-1.127-1.805-1.598-2.753
		c-0.793-1.596-1.501-3.233-2.394-5.179c-1.641-0.188-3.794-0.416-5.941-0.684c-3.937-0.492-7.76-1.408-11.375-3.099
		c-0.596-0.279-1.249-0.468-1.896-0.601c-0.919-0.189-1.673,0.105-2.092,1.004c-2.728,5.861-7.448,8.934-13.727,9.858
		c-0.737,0.108-1.487,0.299-2.167,0.597c-2.473,1.081-3.096,3.284-1.629,5.562c0.79,1.227,1.544,2.479,2.393,3.664
		c0.193,0.269,0.705,0.411,1.079,0.428c1.278,0.058,2.552,0.062,3.593,0.919c-0.006,0.168-0.012,0.336-0.018,0.505
		c-2.43,0.004-4.861,0.038-7.29-0.023c-0.364-0.009-0.784-0.405-1.064-0.722c-2.434-2.768-4.268-5.868-5.192-9.473
		c-0.337-1.313-0.126-2.171,1.217-2.914c1.764-0.977,3.329-2.312,4.979-3.492c-0.057-0.099-0.114-0.199-0.171-0.298
		c-0.264,0.074-0.525,0.16-0.792,0.219c-2.673,0.591-5.335,1.597-8.024,1.677c-5.229,0.155-8.905,2.692-11.799,6.669
		c-1.109,1.524-1.874,3.304-2.752,4.989c-0.828,1.588-3.117,1.827-3.986,0.292c-0.28-0.495-0.23-1.447,0.069-1.955
		c1.436-2.44,2.986-4.814,4.546-7.178c0.56-0.849,1.302-1.576,1.888-2.41c1.156-1.645,2.481-2.965,4.613-3.287
		c0.654-0.099,1.27-0.611,1.85-1.012c1.822-1.258,3.619-2.553,5.527-3.906c-0.121-0.204-0.309-0.521-0.544-0.918
		c-1.564,0.601-3.08,1.203-4.61,1.766c-7.789,2.868-15.656,5.524-23.857,6.901c-3.429,0.576-6.949,0.88-10.434,0.661
		c-1.647-0.103-2.956-0.257-3.925-0.591C215.501,165.697,215.6,165.311,215.77,164.855z"/>
</g>
</svg>
